<svg id="Layer_1" data-name="Layer 1" xmlns="http://www.w3.org/2000/svg" viewBox="0 0 1112.19 267.92"><defs><style>.cls-1{fill:#fafafa;}.cls-2{isolation:isolate;}.cls-3,.cls-9{fill:#1d5099;}.cls-4,.cls-5{fill:#ce3233;}.cls-4{stroke:#ce3233;stroke-width:4px;}.cls-10,.cls-4,.cls-7,.cls-8,.cls-9{stroke-miterlimit:10;}.cls-6{fill:#fff;}.cls-7{fill:none;}.cls-7,.cls-8,.cls-9{stroke:#1d5099;}.cls-8{fill:#b0c8ff;}.cls-10{fill:#2668aa;stroke:#2668aa;}</style></defs><title>Assens-Shipyard-Logo</title><g id="Layer_2" data-name="Layer 2"><g id="Layer_2-2" data-name="Layer 2-2"><circle class="cls-1" cx="993.19" cy="144" r="119"/></g><g id="Lag_1" data-name="Lag 1"><g class="cls-2"><g class="cls-2"><path class="cls-3" d="M3.28,132.65l13.4-46.83H35.17l13.34,46.83h-16l-1.95-8.51H20.23l-2.14,8.51Zm18.63-19.76h6.9L25.46,98.28Z" transform="translate(-3.28)"/></g><g class="cls-2"><path class="cls-3" d="M70.42,133.79a24.37,24.37,0,0,1-7.17-1.07,18.52,18.52,0,0,1-6.17-3.22,15.29,15.29,0,0,1-4-5.26A17.48,17.48,0,0,1,51.52,117H66.06a4.94,4.94,0,0,0,.67,2.72,5,5,0,0,0,1.61,1.6,4.53,4.53,0,0,0,2,.67,5.84,5.84,0,0,0,1.94-.1,3.21,3.21,0,0,0,1.64-1,2.34,2.34,0,0,0,.64-1.64,3.4,3.4,0,0,0-.77-2,8.39,8.39,0,0,0-2.92-2.11,31.33,31.33,0,0,0-7.77-2.54,26.71,26.71,0,0,1-4.39-1.54,15.21,15.21,0,0,1-3.58-2.28,11.29,11.29,0,0,1-3.22-4.49,16.06,16.06,0,0,1-.93-6.5,10.82,10.82,0,0,1,1.8-5.8A14.34,14.34,0,0,1,57,88a19.17,19.17,0,0,1,5.69-2.38,26,26,0,0,1,6.16-.77,31.68,31.68,0,0,1,8.85,1.07,16.31,16.31,0,0,1,5.93,3,12.14,12.14,0,0,1,3.45,4.66,18.18,18.18,0,0,1,1.34,5.92H74.84a3.84,3.84,0,0,0-.57-2.14A4.19,4.19,0,0,0,72.83,96,5,5,0,0,0,71,95.33a9.23,9.23,0,0,0-1.87-.07,5,5,0,0,0-2.42.84,2.34,2.34,0,0,0-1,2.05,2.47,2.47,0,0,0,1.47,2.17,20.08,20.08,0,0,0,5.3,1.64,48.12,48.12,0,0,1,6.83,2,25,25,0,0,1,6,3.25,16.19,16.19,0,0,1,4.25,4.66A11.77,11.77,0,0,1,91.12,118a13.81,13.81,0,0,1-6,11.9,19.64,19.64,0,0,1-6.6,2.91A33.3,33.3,0,0,1,70.42,133.79Z" transform="translate(-3.28)"/></g><g class="cls-2"><path class="cls-3" d="M114.9,133.79a24.35,24.35,0,0,1-7.16-1.07,18.52,18.52,0,0,1-6.17-3.22,15.29,15.29,0,0,1-4-5.26A17.48,17.48,0,0,1,96,117h14.54a4.94,4.94,0,0,0,.67,2.72,5,5,0,0,0,1.61,1.6,4.53,4.53,0,0,0,2,.67,5.84,5.84,0,0,0,1.94-.1,3.21,3.21,0,0,0,1.64-1,2.34,2.34,0,0,0,.64-1.64,3.4,3.4,0,0,0-.77-2,8.39,8.39,0,0,0-2.92-2.11,31.33,31.33,0,0,0-7.77-2.54,26.71,26.71,0,0,1-4.39-1.54,15.21,15.21,0,0,1-3.58-2.28,11.29,11.29,0,0,1-3.22-4.49,15.89,15.89,0,0,1-.93-6.5,10.82,10.82,0,0,1,1.8-5.8A14.43,14.43,0,0,1,101.5,88a19.34,19.34,0,0,1,5.7-2.38,26,26,0,0,1,6.16-.77,31.68,31.68,0,0,1,8.85,1.07,16.31,16.31,0,0,1,5.93,3,12.14,12.14,0,0,1,3.45,4.66,18.18,18.18,0,0,1,1.34,5.92h-13.6a3.84,3.84,0,0,0-.57-2.14A4.19,4.19,0,0,0,117.32,96a5,5,0,0,0-1.88-.64,9.31,9.31,0,0,0-1.88-.07,5,5,0,0,0-2.41.84,2.34,2.34,0,0,0-1,2.05,2.47,2.47,0,0,0,1.47,2.17,20.08,20.08,0,0,0,5.3,1.64,48.12,48.12,0,0,1,6.83,2,25,25,0,0,1,6,3.25,16.19,16.19,0,0,1,4.25,4.66,11.77,11.77,0,0,1,1.61,6.16,13.81,13.81,0,0,1-6,11.9,19.64,19.64,0,0,1-6.6,2.91A33.33,33.33,0,0,1,114.9,133.79Z" transform="translate(-3.28)"/></g><g class="cls-2"><path class="cls-3" d="M141.5,132.65V85.82h33.24V98.35H157.52v5.42h15.27V115H157.52v5.29h17.22v12.33Z" transform="translate(-3.28)"/></g><g class="cls-2"><path class="cls-3" d="M181.63,132.65V85.82h15l11,21.57V85.82h15.74v46.83H208l-10.92-21.44v21.44Z" transform="translate(-3.28)"/></g><g class="cls-2"><path class="cls-3" d="M249,133.79a24.35,24.35,0,0,1-7.16-1.07,18.52,18.52,0,0,1-6.17-3.22,15.29,15.29,0,0,1-4-5.26,17.48,17.48,0,0,1-1.54-7.27h14.54a4.94,4.94,0,0,0,.67,2.72,5,5,0,0,0,1.61,1.6,4.53,4.53,0,0,0,2,.67,5.84,5.84,0,0,0,1.94-.1,3.21,3.21,0,0,0,1.64-1,2.34,2.34,0,0,0,.64-1.64,3.4,3.4,0,0,0-.77-2,8.39,8.39,0,0,0-2.92-2.11,31.33,31.33,0,0,0-7.77-2.54,26.71,26.71,0,0,1-4.39-1.54,15.21,15.21,0,0,1-3.58-2.28,11.29,11.29,0,0,1-3.22-4.49,16.05,16.05,0,0,1-.94-6.5,10.91,10.91,0,0,1,1.81-5.8A14.43,14.43,0,0,1,235.63,88a19.34,19.34,0,0,1,5.7-2.38,26,26,0,0,1,6.16-.77,31.68,31.68,0,0,1,8.85,1.07,16.31,16.31,0,0,1,5.93,3,12.14,12.14,0,0,1,3.45,4.66,18.18,18.18,0,0,1,1.34,5.92h-13.6a3.84,3.84,0,0,0-.57-2.14A4.19,4.19,0,0,0,251.45,96a5,5,0,0,0-1.88-.64,9.33,9.33,0,0,0-1.88-.07,5,5,0,0,0-2.41.84,2.34,2.34,0,0,0-1,2.05,2.47,2.47,0,0,0,1.47,2.17A20.1,20.1,0,0,0,251,102a47.87,47.87,0,0,1,6.84,2,25,25,0,0,1,6,3.25,16.19,16.19,0,0,1,4.25,4.66,11.77,11.77,0,0,1,1.61,6.16,13.81,13.81,0,0,1-6,11.9,19.64,19.64,0,0,1-6.6,2.91A33.33,33.33,0,0,1,249,133.79Z" transform="translate(-3.28)"/></g><g class="cls-2"><path class="cls-3" d="M310.54,133.79a24.35,24.35,0,0,1-7.16-1.07,18.52,18.52,0,0,1-6.17-3.22,15.29,15.29,0,0,1-4-5.26,17.48,17.48,0,0,1-1.54-7.27h14.54a4.94,4.94,0,0,0,.67,2.72,5,5,0,0,0,1.61,1.6,4.53,4.53,0,0,0,2,.67,5.84,5.84,0,0,0,1.94-.1,3.21,3.21,0,0,0,1.64-1,2.34,2.34,0,0,0,.64-1.64,3.4,3.4,0,0,0-.77-2,8.39,8.39,0,0,0-2.92-2.11,31.33,31.33,0,0,0-7.77-2.54,26.71,26.71,0,0,1-4.39-1.54,15.21,15.21,0,0,1-3.58-2.28,11.29,11.29,0,0,1-3.22-4.49,15.89,15.89,0,0,1-.93-6.5,10.82,10.82,0,0,1,1.8-5.8A14.34,14.34,0,0,1,297.15,88a19.17,19.17,0,0,1,5.69-2.38,26,26,0,0,1,6.16-.77,31.68,31.68,0,0,1,8.85,1.07,16.31,16.31,0,0,1,5.93,3,12.14,12.14,0,0,1,3.45,4.66,18.18,18.18,0,0,1,1.34,5.92H315a3.84,3.84,0,0,0-.57-2.14A4.19,4.19,0,0,0,313,96a5,5,0,0,0-1.88-.64,9.23,9.23,0,0,0-1.87-.07,5,5,0,0,0-2.42.84,2.34,2.34,0,0,0-1,2.05,2.47,2.47,0,0,0,1.47,2.17,20.08,20.08,0,0,0,5.3,1.64,48.12,48.12,0,0,1,6.83,2,25,25,0,0,1,6,3.25,16.19,16.19,0,0,1,4.25,4.66,11.77,11.77,0,0,1,1.61,6.16,13.81,13.81,0,0,1-6,11.9,19.64,19.64,0,0,1-6.6,2.91A33.33,33.33,0,0,1,310.54,133.79Z" transform="translate(-3.28)"/></g><g class="cls-2"><path class="cls-3" d="M337.14,132.65V85.82h15.95v14.4l6.9-14.4h15.88l-9.52,19.09,11.93,27.74H360.86l-7.77-21.24v21.24Z" transform="translate(-3.28)"/></g><g class="cls-2"><path class="cls-3" d="M382.77,132.65V85.82h16.15v46.83Z" transform="translate(-3.28)"/></g><g class="cls-2"><path class="cls-3" d="M406.41,132.65V85.82h18a32.79,32.79,0,0,1,4.89.37A20.38,20.38,0,0,1,434,87.43a15.34,15.34,0,0,1,3.92,2.27,10.85,10.85,0,0,1,2.82,3.49A13.87,13.87,0,0,1,442,96.81a12.83,12.83,0,0,1,.23,3.85,12.32,12.32,0,0,1-.9,3.68,10.73,10.73,0,0,1-2,3.18,10.23,10.23,0,0,1,4.46,4.56,14.34,14.34,0,0,1,1.44,6.37,17.1,17.1,0,0,1-.91,5.66,12.73,12.73,0,0,1-2.68,4.49,12.28,12.28,0,0,1-4.42,3,16.36,16.36,0,0,1-6.13,1.07Zm15.14-28.54a13.5,13.5,0,0,0,1.75.23,8.24,8.24,0,0,0,2.27-.1,4.09,4.09,0,0,0,2-.9,3.42,3.42,0,0,0,0-4.49,4.44,4.44,0,0,0-2-.94,8.7,8.7,0,0,0-2.27-.17c-.76.05-1.34.09-1.75.14Zm0,17.08a20.36,20.36,0,0,0,2.68.24,7.28,7.28,0,0,0,2.38-.3,3.6,3.6,0,0,0,1.68-1.11,3.24,3.24,0,0,0,.63-2.11,2.83,2.83,0,0,0-1-2.28,4.74,4.74,0,0,0-2.38-1.07,8.45,8.45,0,0,0-2.21-.1c-.67.07-1.25.14-1.75.23Z" transform="translate(-3.28)"/></g><g class="cls-2"><path class="cls-3" d="M470,133.79a24.35,24.35,0,0,1-7.16-1.07,18.52,18.52,0,0,1-6.17-3.22,15.29,15.29,0,0,1-4-5.26,17.48,17.48,0,0,1-1.54-7.27h14.54a4.94,4.94,0,0,0,.67,2.72,5,5,0,0,0,1.61,1.6,4.53,4.53,0,0,0,2,.67,5.84,5.84,0,0,0,1.94-.1,3.21,3.21,0,0,0,1.64-1,2.34,2.34,0,0,0,.64-1.64,3.4,3.4,0,0,0-.77-2,8.39,8.39,0,0,0-2.92-2.11,31.33,31.33,0,0,0-7.77-2.54,26.71,26.71,0,0,1-4.39-1.54,15.21,15.21,0,0,1-3.58-2.28,11.29,11.29,0,0,1-3.22-4.49,15.89,15.89,0,0,1-.93-6.5,10.82,10.82,0,0,1,1.8-5.8A14.43,14.43,0,0,1,456.6,88a19.34,19.34,0,0,1,5.7-2.38,26,26,0,0,1,6.16-.77,31.68,31.68,0,0,1,8.85,1.07,16.31,16.31,0,0,1,5.93,3,12.14,12.14,0,0,1,3.45,4.66A18.18,18.18,0,0,1,488,99.48h-13.6a3.84,3.84,0,0,0-.57-2.14A4.19,4.19,0,0,0,472.42,96a5,5,0,0,0-1.88-.64,9.23,9.23,0,0,0-1.87-.07,5,5,0,0,0-2.42.84,2.34,2.34,0,0,0-1,2.05,2.47,2.47,0,0,0,1.47,2.17A20.08,20.08,0,0,0,472,102a48.12,48.12,0,0,1,6.83,2,25,25,0,0,1,6,3.25,16.19,16.19,0,0,1,4.25,4.66,11.77,11.77,0,0,1,1.61,6.16,13.81,13.81,0,0,1-6,11.9,19.64,19.64,0,0,1-6.6,2.91A33.33,33.33,0,0,1,470,133.79Z" transform="translate(-3.28)"/></g><g class="cls-2"><path class="cls-3" d="M503.9,132.65,492,85.82h16.28L513.75,115l5.43-29.14h16.35L523.6,132.65Z" transform="translate(-3.28)"/></g><g class="cls-2"><path class="cls-3" d="M530.7,132.65l21.84-46.83h42.21V98.35H578.14v5.42h14.67V115H578.14v5.29h16.61v12.33H562.19v-8.51H551.07l-3.35,8.51Zm24.53-19.76h7V95.4Z" transform="translate(-3.28)"/></g><g class="cls-2"><path class="cls-3" d="M601.59,132.65V85.82h20.77q8,0,12.6,3.82t4.55,10.51a12.58,12.58,0,0,1-1.8,6.57,11.56,11.56,0,0,1-5.5,4.62l9.65,21.31H624.17L617,113.35v19.3ZM617,104.18a24.42,24.42,0,0,0,2.48.16,9.1,9.1,0,0,0,2.61-.27,4.4,4.4,0,0,0,2-1.1,3.19,3.19,0,0,0,.84-2.41,3.14,3.14,0,0,0-.77-2.31,3.93,3.93,0,0,0-1.91-1,10.29,10.29,0,0,0-2.58-.24l-2.72.1Z" transform="translate(-3.28)"/></g><g class="cls-2"><path class="cls-3" d="M646.74,132.65V85.82h32.57V98.35H662.69v5.29h14.67v11.19H662.69v17.82Z" transform="translate(-3.28)"/></g><g class="cls-2"><path class="cls-3" d="M694.79,132.65V98.35h-9.12V85.82h34.44V98.35H711v34.3Z" transform="translate(-3.28)"/></g><g class="cls-2"><path class="cls-3" d="M739.74,132.65l13.4-46.83h18.49L785,132.65H769l-2-8.51H756.69l-2.14,8.51Zm18.63-19.76h6.9l-3.35-14.61Z" transform="translate(-3.28)"/><path class="cls-3" d="M792.2,132.92l9.45-49h8.71l-9.45,49Z" transform="translate(-3.28)"/></g><g class="cls-2"><path class="cls-3" d="M832.73,133.79a24.35,24.35,0,0,1-7.16-1.07,18.52,18.52,0,0,1-6.17-3.22,15.29,15.29,0,0,1-4-5.26,17.48,17.48,0,0,1-1.54-7.27h14.54a4.94,4.94,0,0,0,.67,2.72,5,5,0,0,0,1.61,1.6,4.53,4.53,0,0,0,2,.67,5.84,5.84,0,0,0,1.94-.1,3.21,3.21,0,0,0,1.64-1,2.34,2.34,0,0,0,.64-1.64,3.4,3.4,0,0,0-.77-2,8.39,8.39,0,0,0-2.92-2.11,31.33,31.33,0,0,0-7.77-2.54,26.71,26.71,0,0,1-4.39-1.54,15.21,15.21,0,0,1-3.58-2.28,11.29,11.29,0,0,1-3.22-4.49,16.05,16.05,0,0,1-.94-6.5,10.91,10.91,0,0,1,1.81-5.8A14.43,14.43,0,0,1,819.33,88a19.34,19.34,0,0,1,5.7-2.38,26,26,0,0,1,6.16-.77A31.68,31.68,0,0,1,840,85.88a16.31,16.31,0,0,1,5.93,3,12.14,12.14,0,0,1,3.45,4.66,18.18,18.18,0,0,1,1.34,5.92h-13.6a3.84,3.84,0,0,0-.57-2.14A4.19,4.19,0,0,0,835.15,96a5,5,0,0,0-1.88-.64,9.33,9.33,0,0,0-1.88-.07,5,5,0,0,0-2.41.84,2.34,2.34,0,0,0-1,2.05,2.47,2.47,0,0,0,1.47,2.17,20.08,20.08,0,0,0,5.3,1.64,48.51,48.51,0,0,1,6.83,2,25,25,0,0,1,6,3.25,16.19,16.19,0,0,1,4.25,4.66,11.77,11.77,0,0,1,1.61,6.16,13.81,13.81,0,0,1-6,11.9,19.64,19.64,0,0,1-6.6,2.91A33.33,33.33,0,0,1,832.73,133.79Z" transform="translate(-3.28)"/></g></g><circle class="cls-4" cx="990.69" cy="151.5" r="79.5"/><rect class="cls-5" x="1032.19" width="7" height="86"/><path class="cls-6" d="M1042.47,91.07V211.93a77.46,77.46,0,0,0,0-120.86Z" transform="translate(-3.28)"/><path class="cls-7" d="M901.38,203a108.4,108.4,0,0,1-14.51-1s-1.48-.14-4.51-3.08a11.22,11.22,0,0,1-3.23-7.49l-.11-1a110.36,110.36,0,0,0,13.81,2.9,17.26,17.26,0,0,1,4.73,3.14C899.32,198.26,899.25,198.29,901.38,203Z" transform="translate(-3.28)"/><path class="cls-8" d="M897.6,202c1,0,1.92.07,2.87.08-.06-.05-1.69-6.2-7.93-8.41-.82,0-1.64.06-2.46.07C890.14,193.8,895.7,194.7,897.6,202Z" transform="translate(-3.28)"/><path class="cls-6" d="M897.34,202.45q-3.6-.15-7.26-.54c.07,0-6.23-1.59-7.71-10.16,2.67.67,5.33,1.21,8,1.62C890.4,193.5,897.62,197.44,897.34,202.45Z" transform="translate(-3.28)"/><path class="cls-9" d="M889.76,201.81l-1.88-.16c.09.06-7.58-1-8.44-10.64l2.93.74C882.3,191.74,884.31,199.8,889.76,201.81Z" transform="translate(-3.28)"/><path class="cls-10" d="M893,201.57l-1.87-.1c.09.06-7.53-.82-8.4-10.21,1,.24,2,.46,2.92.66C885.6,191.9,887.61,199.74,893,201.57Z" transform="translate(-3.28)"/><path class="cls-7" d="M907.52,211.51a111.67,111.67,0,0,1-14.4.6s-1.48,0-4.7-2.5a10.55,10.55,0,0,1-3.79-6.92c-.2-1-.19-1-.19-1A109.23,109.23,0,0,0,898.3,203a16.58,16.58,0,0,1,4.92,2.55C905.11,207.14,905,207.17,907.52,211.51Z" transform="translate(-3.28)"/><path class="cls-8" d="M903.72,211c.95-.06,1.89-.14,2.84-.23-.07,0-2.18-5.89-8.52-7.34l-2.42.34C895.69,203.79,901.25,204,903.72,211Z" transform="translate(-3.28)"/><path class="cls-6" d="M903.49,211.44c-2.37.16-4.78.25-7.21.26.07,0-6.28-.89-8.43-9,2.7.33,5.38.55,8,.68C895.91,203.46,903.36,206.51,903.49,211.44Z" transform="translate(-3.28)"/><path class="cls-9" d="M896,211.63l-1.87.05c.09.06-7.57-.17-9.19-9.42,1,.15,2,.28,3,.4C887.79,202.65,890.41,210.26,896,211.63Z" transform="translate(-3.28)"/><path class="cls-10" d="M899.15,211.05l-1.85.1c.1,0-7.5,0-9.11-9,1,.12,2,.22,2.93.32C891.05,202.44,893.66,209.84,899.15,211.05Z" transform="translate(-3.28)"/><path class="cls-7" d="M915.19,220.16a116.3,116.3,0,0,1-14.14,2.28s-1.46.19-4.87-1.88a10,10,0,0,1-4.37-6.28c-.28-.91-.27-.91-.28-.91a115.23,115.23,0,0,0,13.78-.44,15.67,15.67,0,0,1,5.08,1.89C912.4,216.16,912.33,216.19,915.19,220.16Z" transform="translate(-3.28)"/><path class="cls-8" d="M911.39,220.1c.93-.17,1.86-.36,2.78-.55a12.06,12.06,0,0,0-9.08-6.18c-.78.22-1.56.43-2.35.63C902.8,214,908.31,213.58,911.39,220.1Z" transform="translate(-3.28)"/><path class="cls-6" d="M911.21,220.56c-2.33.44-4.69.8-7.09,1.1.08,0-6.27-.13-9.13-7.8,2.68,0,5.34-.11,8-.31C903,213.66,910.61,215.74,911.21,220.56Z" transform="translate(-3.28)"/><path class="cls-9" d="M903.8,221.63l-1.84.28c.1,0-7.48.72-9.92-8.08h3C894.92,213.85,898.2,220.94,903.8,221.63Z" transform="translate(-3.28)"/><path class="cls-10" d="M906.89,220.69l-1.81.31c.09.05-7.4.89-9.81-7.69,1,0,2,0,2.92-.05C898.12,213.25,901.36,220.15,906.89,220.69Z" transform="translate(-3.28)"/><path class="cls-7" d="M922.6,227a119.26,119.26,0,0,1-13.79,3.69s-1.43.34-5-1.35a9.49,9.49,0,0,1-4.83-5.7c-.36-.87-.35-.87-.35-.87a116.82,116.82,0,0,0,13.57-1.88,15.31,15.31,0,0,1,5.18,1.34C919.51,223.32,919.44,223.35,922.6,227Z" transform="translate(-3.28)"/><path class="cls-8" d="M918.84,227.31c.9-.27,1.8-.54,2.7-.83a11.64,11.64,0,0,0-9.49-5.15l-2.27.86C909.85,222.2,915.24,221.19,918.84,227.31Z" transform="translate(-3.28)"/><path class="cls-6" d="M918.7,227.78c-2.27.66-4.58,1.27-6.92,1.8.08,0-6.21.51-9.67-6.71,2.65-.3,5.27-.68,7.84-1.14C910,221.83,917.71,223.08,918.7,227.78Z" transform="translate(-3.28)"/><path class="cls-9" d="M911.46,229.59l-1.79.46c.1,0-7.34,1.47-10.47-6.9,1-.08,1.94-.18,2.91-.28C902,222.86,905.87,229.48,911.46,229.59Z" transform="translate(-3.28)"/><path class="cls-10" d="M914.44,228.34l-1.77.5c.1,0-7.24,1.62-10.33-6.54q1.45-.17,2.88-.36C905.15,221.94,908.93,228.37,914.44,228.34Z" transform="translate(-3.28)"/><path class="cls-7" d="M930.51,233a119.53,119.53,0,0,1-13.34,5s-1.38.47-5-.84a9.2,9.2,0,0,1-5.25-5.13l-.42-.82A120.41,120.41,0,0,0,919.74,228a14.75,14.75,0,0,1,5.23.8C927.14,229.68,927.08,229.71,930.51,233Z" transform="translate(-3.28)"/><path class="cls-8" d="M926.81,233.69c.88-.35,1.75-.72,2.61-1.09a11.34,11.34,0,0,0-9.82-4.15c-.72.37-1.45.73-2.18,1.08C917.49,229.54,922.74,228,926.81,233.69Z" transform="translate(-3.28)"/><path class="cls-6" d="M926.71,234.16c-2.18.88-4.42,1.71-6.69,2.47.08,0-6.11,1.11-10.13-5.65q3.9-.84,7.67-1.92C917.61,229.15,925.33,229.61,926.71,234.16Z" transform="translate(-3.28)"/><path class="cls-9" d="M919.7,236.67l-1.73.63c.1,0-7.14,2.17-10.93-5.74l2.85-.58C909.82,231,914.16,237.11,919.7,236.67Z" transform="translate(-3.28)"/><path class="cls-10" d="M922.55,235.14q-.85.35-1.71.66c.1,0-7,2.32-10.76-5.41.94-.2,1.88-.41,2.81-.64C912.82,229.75,917.1,235.71,922.55,235.14Z" transform="translate(-3.28)"/><path class="cls-7" d="M938.86,238.2a123.68,123.68,0,0,1-12.79,6.22s-1.33.6-5.05-.33a8.93,8.93,0,0,1-5.63-4.56l-.49-.76a121.61,121.61,0,0,0,12.86-4.5,15,15,0,0,1,5.25.28C935.23,235.23,935.18,235.27,938.86,238.2Z" transform="translate(-3.28)"/><path class="cls-8" d="M935.25,239.23q1.26-.64,2.49-1.32a11.14,11.14,0,0,0-10.08-3.17c-.68.44-1.37.86-2.06,1.28C925.67,236,930.73,234,935.25,239.23Z" transform="translate(-3.28)"/><path class="cls-6" d="M935.19,239.72c-2.09,1.08-4.22,2.1-6.41,3.07.07,0-6,1.69-10.51-4.6,2.52-.81,5-1.69,7.42-2.65C925.76,235.63,933.44,235.33,935.19,239.72Z" transform="translate(-3.28)"/><path class="cls-9" d="M928.46,242.86l-1.66.79c.1,0-6.89,2.84-11.31-4.6.93-.28,1.86-.56,2.78-.86C918.2,238.2,923,243.83,928.46,242.86Z" transform="translate(-3.28)"/><path class="cls-10" d="M931.15,241.08c-.54.28-1.09.55-1.64.82.11,0-6.76,3-11.11-4.3.92-.3,1.83-.6,2.73-.91C921.06,236.69,925.8,242.16,931.15,241.08Z" transform="translate(-3.28)"/><path class="cls-7" d="M948.68,243.08a123.74,123.74,0,0,1-12.06,7.5s-1.25.73-5,.2a8.81,8.81,0,0,1-6-3.9c-.56-.71-.55-.71-.55-.71a121.76,121.76,0,0,0,12.27-5.83,14.83,14.83,0,0,1,5.23-.27C944.81,240.51,944.76,240.55,948.68,243.08Z" transform="translate(-3.28)"/><path class="cls-8" d="M945.22,244.48c.78-.52,1.56-1,2.33-1.57a11,11,0,0,0-10.27-2.09c-.64.5-1.28,1-1.93,1.49C935.42,242.31,940.23,239.73,945.22,244.48Z" transform="translate(-3.28)"/><path class="cls-6" d="M945.2,245q-2.94,1.94-6.05,3.72c.08,0-5.74,2.29-10.83-3.44,2.41-1.07,4.78-2.21,7.08-3.42C935.48,241.9,943,240.79,945.2,245Z" transform="translate(-3.28)"/><path class="cls-9" d="M938.85,248.79l-1.58,1c.11,0-6.54,3.52-11.61-3.35l2.66-1.15C928.25,245.25,933.54,250.31,938.85,248.79Z" transform="translate(-3.28)"/><path class="cls-10" d="M941.34,246.74l-1.55,1c.11,0-6.41,3.63-11.4-3.08.88-.39,1.75-.79,2.62-1.2C930.94,243.45,936.14,248.36,941.34,246.74Z" transform="translate(-3.28)"/><path class="cls-7" d="M957.74,246.56a125.15,125.15,0,0,1-11.32,8.54s-1.18.84-5,.65a8.68,8.68,0,0,1-6.28-3.32l-.61-.65a129.41,129.41,0,0,0,11.68-6.92,14.58,14.58,0,0,1,5.16-.75C953.68,244.34,953.63,244.39,957.74,246.56Z" transform="translate(-3.28)"/><path class="cls-8" d="M954.42,248.26c.74-.59,1.46-1.17,2.18-1.77a10.85,10.85,0,0,0-10.37-1.15c-.59.56-1.18,1.11-1.78,1.65C944.52,247,949.07,244,954.42,248.26Z" transform="translate(-3.28)"/><path class="cls-6" d="M954.45,248.74q-2.76,2.19-5.69,4.24c.08,0-5.49,2.79-11-2.43,2.3-1.29,4.55-2.64,6.73-4C944.54,246.58,952,244.78,954.45,248.74Z" transform="translate(-3.28)"/><path class="cls-9" d="M948.47,253.11l-1.48,1.1c.11,0-6.18,4.08-11.8-2.27.85-.45,1.7-.92,2.54-1.39C937.66,250.57,943.34,255.1,948.47,253.11Z" transform="translate(-3.28)"/><path class="cls-10" d="M950.77,250.85,949.32,252c.11,0-6.05,4.18-11.57-2,.84-.47,1.67-.95,2.49-1.43C940.17,248.53,945.75,252.93,950.77,250.85Z" transform="translate(-3.28)"/><path class="cls-7" d="M968.22,249.5a129.47,129.47,0,0,1-10.4,9.61s-1.1.95-4.86,1.14a8.63,8.63,0,0,1-6.55-2.66,7.32,7.32,0,0,1-.66-.59,131.27,131.27,0,0,0,10.89-8,14.45,14.45,0,0,1,5-1.26C964,247.7,963.92,247.75,968.22,249.5Z" transform="translate(-3.28)"/><path class="cls-8" d="M965.09,251.51c.67-.65,1.34-1.3,2-2a10.77,10.77,0,0,0-10.4-.11l-1.6,1.82C955.15,251.23,959.36,247.79,965.09,251.51Z" transform="translate(-3.28)"/><path class="cls-6" d="M965.17,252q-2.53,2.44-5.23,4.78c.07,0-5.19,3.31-11.18-1.31q3.24-2.26,6.28-4.7C955.12,250.82,962.3,248.3,965.17,252Z" transform="translate(-3.28)"/><path class="cls-9" d="M959.66,256.93l-1.36,1.23c.11,0-5.74,4.67-11.92-1.07.8-.53,1.59-1.08,2.38-1.63C948.69,255.48,954.76,259.41,959.66,256.93Z" transform="translate(-3.28)"/><path class="cls-10" d="M961.71,254.45l-1.32,1.26c.11,0-5.59,4.75-11.67-.85.79-.55,1.56-1.11,2.33-1.67C951,253.21,956.94,257,961.71,254.45Z" transform="translate(-3.28)"/><path class="cls-7" d="M977.71,251.25a130.8,130.8,0,0,1-9.5,10.46s-1,1-4.74,1.56a8.53,8.53,0,0,1-6.73-2.08l-.71-.52a128.94,128.94,0,0,0,10.13-9,14.49,14.49,0,0,1,4.9-1.69C973.33,249.82,973.29,249.87,977.71,251.25Z" transform="translate(-3.28)"/><path class="cls-8" d="M974.77,253.52c.62-.7,1.22-1.41,1.81-2.13a10.71,10.71,0,0,0-10.34.78c-.48.66-1,1.31-1.44,2C964.87,254.1,968.75,250.3,974.77,253.52Z" transform="translate(-3.28)"/><path class="cls-6" d="M974.89,254c-1.53,1.77-3.13,3.51-4.78,5.21.07,0-4.87,3.74-11.22-.33,2-1.7,4-3.44,5.83-5.23C964.81,253.7,971.72,250.56,974.89,254Z" transform="translate(-3.28)"/><path class="cls-9" d="M969.85,259.38l-1.25,1.35c.11,0-5.3,5.14-11.94,0,.75-.61,1.5-1.22,2.23-1.84C958.82,258.9,965.19,262.28,969.85,259.38Z" transform="translate(-3.28)"/><path class="cls-10" d="M971.67,256.74l-1.2,1.36c.1,0-5.15,5.22-11.67.17.73-.61,1.45-1.24,2.17-1.86C960.9,256.43,967.15,259.7,971.67,256.74Z" transform="translate(-3.28)"/><path class="cls-7" d="M988.51,252.25a130.69,130.69,0,0,1-8.42,11.32s-.9,1.13-4.55,2a8.54,8.54,0,0,1-6.89-1.42l-.76-.44a128.35,128.35,0,0,0,9.18-9.91,14.59,14.59,0,0,1,4.71-2.15C984,251.24,984,251.3,988.51,252.25Z" transform="translate(-3.28)"/><path class="cls-8" d="M985.81,254.79c.54-.76,1.07-1.52,1.59-2.29a10.64,10.64,0,0,0-10.2,1.76c-.41.7-.82,1.39-1.24,2.08C976,256.31,979.52,252.16,985.81,254.79Z" transform="translate(-3.28)"/><path class="cls-6" d="M986,255.25c-1.36,1.9-2.77,3.78-4.25,5.64.08,0-4.47,4.18-11.18.75q2.76-2.83,5.29-5.77C975.93,255.92,982.48,252.13,986,255.25Z" transform="translate(-3.28)"/><path class="cls-9" d="M981.49,261.09c-.37.49-.73,1-1.11,1.46.11,0-4.76,5.63-11.85,1.13l2-2S977.15,264.42,981.49,261.09Z" transform="translate(-3.28)"/><path class="cls-10" d="M983.05,258.29l-1,1.47c.1,0-4.61,5.68-11.57,1.29.67-.68,1.32-1.37,2-2.07C972.32,259,978.84,261.67,983.05,258.29Z" transform="translate(-3.28)"/><path class="cls-7" d="M998.15,252.27a130.59,130.59,0,0,1-7.4,12s-.8,1.2-4.36,2.38a8.52,8.52,0,0,1-7-.83l-.79-.38a129,129,0,0,0,8.27-10.65,14.41,14.41,0,0,1,4.5-2.54C993.59,251.65,993.55,251.7,998.15,252.27Z" transform="translate(-3.28)"/><path class="cls-8" d="M995.69,255c.47-.8.93-1.61,1.38-2.42a10.6,10.6,0,0,0-10,2.62c-.34.73-.69,1.45-1,2.18C986.07,257.38,989.18,252.94,995.69,255Z" transform="translate(-3.28)"/><path class="cls-6" d="M995.89,255.47q-1.77,3-3.74,6c.07,0-4.09,4.54-11.06,1.69,1.66-2,3.25-4.09,4.75-6.19C985.94,257,992.14,252.66,995.89,255.47Z" transform="translate(-3.28)"/><path class="cls-9" d="M991.93,261.68l-1,1.54c.11,0-4.25,6-11.7,2.13.62-.73,1.24-1.47,1.84-2.21C981,263.18,987.89,265.35,991.93,261.68Z" transform="translate(-3.28)"/><path class="cls-10" d="M993.23,258.75q-.45.78-.93,1.56c.1,0-4.1,6-11.4,2.26.6-.74,1.19-1.48,1.77-2.23C982.61,260.38,989.34,262.47,993.23,258.75Z" transform="translate(-3.28)"/><path class="cls-7" d="M1007.76,251.48a128.48,128.48,0,0,1-6.33,12.57s-.69,1.27-4.14,2.74a8.59,8.59,0,0,1-7-.24l-.82-.31a129.07,129.07,0,0,0,7.31-11.31A14.34,14.34,0,0,1,1001,252C1003.16,251.24,1003.13,251.31,1007.76,251.48Z" transform="translate(-3.28)"/><path class="cls-8" d="M1005.55,254.44c.4-.84.79-1.68,1.17-2.53a10.64,10.64,0,0,0-9.75,3.46c-.28.75-.57,1.5-.86,2.25C996.17,257.59,998.88,252.9,1005.55,254.44Z" transform="translate(-3.28)"/><path class="cls-6" d="M1005.79,254.86q-1.51,3.17-3.21,6.27c.07,0-3.68,4.88-10.87,2.62,1.48-2.16,2.87-4.35,4.19-6.57C996,257.21,1001.8,252.38,1005.79,254.86Z" transform="translate(-3.28)"/><path class="cls-9" d="M1002.38,261.38l-.84,1.62c.1,0-3.72,6.34-11.47,3.1.56-.78,1.1-1.56,1.64-2.35C991.65,263.79,998.68,265.38,1002.38,261.38Z" transform="translate(-3.28)"/><path class="cls-10" d="M1003.43,258.35c-.27.55-.53,1.09-.8,1.63.1,0-3.56,6.37-11.16,3.22.53-.79,1.06-1.58,1.57-2.37C993,260.87,999.86,262.39,1003.43,258.35Z" transform="translate(-3.28)"/><path class="cls-7" d="M1017.29,249.88a131.19,131.19,0,0,1-5.23,13.06s-.58,1.32-3.89,3.08a8.59,8.59,0,0,1-7,.36l-.84-.25a133.5,133.5,0,0,0,6.3-11.88,14.47,14.47,0,0,1,4-3.26C1012.67,250,1012.65,250.1,1017.29,249.88Z" transform="translate(-3.28)"/><path class="cls-8" d="M1015.33,253c.33-.88.64-1.75.95-2.62a10.62,10.62,0,0,0-9.43,4.27c-.21.77-.43,1.54-.65,2.32C1006.25,256.94,1008.54,252.05,1015.33,253Z" transform="translate(-3.28)"/><path class="cls-6" d="M1015.61,253.42q-1.23,3.27-2.66,6.52c.07,0-3.25,5.16-10.61,3.52,1.28-2.28,2.49-4.58,3.61-6.89C1006.05,256.58,1011.41,251.28,1015.61,253.42Z" transform="translate(-3.28)"/><path class="cls-9" d="M1012.77,260.2q-.33.84-.69,1.68c.1-.05-3.16,6.64-11.17,4.07.49-.83,1-1.66,1.43-2.49C1002.29,263.51,1009.43,264.5,1012.77,260.2Z" transform="translate(-3.28)"/><path class="cls-10" d="M1013.55,257.09c-.21.57-.43,1.13-.65,1.69.1,0-3,6.65-10.85,4.15.47-.83.92-1.66,1.37-2.49C1003.36,260.48,1010.35,261.41,1013.55,257.09Z" transform="translate(-3.28)"/><path class="cls-7" d="M1027.81,247.1a129.64,129.64,0,0,1-3.94,13.51s-.45,1.37-3.57,3.44a8.59,8.59,0,0,1-7,1l-.87-.16a123.59,123.59,0,0,0,5.12-12.44,14.51,14.51,0,0,1,3.67-3.62C1023.22,247.71,1023.2,247.77,1027.81,247.1Z" transform="translate(-3.28)"/><path class="cls-8" d="M1026.16,250.42q.36-1.35.69-2.7a10.67,10.67,0,0,0-9,5.16c-.14.79-.28,1.58-.43,2.37C1017.49,255.2,1019.3,250.12,1026.16,250.42Z" transform="translate(-3.28)"/><path class="cls-6" d="M1026.48,250.79q-.9,3.38-2,6.75c.06-.05-2.74,5.46-10.24,4.53,1.06-2.4,2-4.8,2.93-7.22C1017.26,254.86,1022.08,249.07,1026.48,250.79Z" transform="translate(-3.28)"/><path class="cls-9" d="M1024.31,257.81c-.17.58-.34,1.17-.52,1.75.09-.06-2.51,6.91-10.74,5.11.4-.86.8-1.73,1.18-2.6C1014.18,262.12,1021.4,262.42,1024.31,257.81Z" transform="translate(-3.28)"/><path class="cls-10" d="M1024.79,254.65l-.48,1.74c.09-.05-2.35,6.91-10.42,5.18.38-.87.76-1.74,1.12-2.62C1015,259,1022,259.26,1024.79,254.65Z" transform="translate(-3.28)"/><path class="cls-7" d="M1036.93,243.77a130,130,0,0,1-2.77,13.82s-.33,1.4-3.27,3.74A8.61,8.61,0,0,1,1024,263l-.87-.09a131.32,131.32,0,0,0,4-12.83,14.2,14.2,0,0,1,3.35-3.93C1032.39,244.78,1032.38,244.85,1036.93,243.77Z" transform="translate(-3.28)"/><path class="cls-8" d="M1035.57,247.22c.16-.92.31-1.84.45-2.75a10.69,10.69,0,0,0-8.53,5.93c-.06.8-.14,1.6-.22,2.4C1027.32,252.75,1028.68,247.53,1035.57,247.22Z" transform="translate(-3.28)"/><path class="cls-6" d="M1035.92,247.56c-.41,2.3-.88,4.6-1.43,6.91.07-.05-2.26,5.68-9.83,5.4q1.27-3.71,2.29-7.44C1027.05,252.43,1031.37,246.24,1035.92,247.56Z" transform="translate(-3.28)"/><path class="cls-9" d="M1034.36,254.76c-.12.59-.24,1.19-.37,1.78.09-.06-1.9,7.11-10.28,6,.33-.9.65-1.8,1-2.7C1024.62,259.93,1031.85,259.61,1034.36,254.76Z" transform="translate(-3.28)"/><path class="cls-10" d="M1034.56,251.56c-.1.59-.21,1.19-.33,1.78.09-.06-1.74,7.1-10,6.06.3-.9.6-1.8.89-2.7C1025.12,256.76,1032.19,256.4,1034.56,251.56Z" transform="translate(-3.28)"/><path class="cls-7" d="M1045.76,239.62a129,129,0,0,1-1.58,14s-.2,1.43-2.94,4a8.59,8.59,0,0,1-6.72,2.22h-.89a125.78,125.78,0,0,0,2.92-13.14,14.12,14.12,0,0,1,3-4.22C1041.3,241,1041.3,241.11,1045.76,239.62Z" transform="translate(-3.28)"/><path class="cls-8" d="M1044.7,243.19q.12-1.4.21-2.79a10.8,10.8,0,0,0-8,6.69v2.41C1036.93,249.44,1037.83,244.12,1044.7,243.19Z" transform="translate(-3.28)"/><path class="cls-6" d="M1045.07,243.5c-.21,2.33-.49,4.67-.82,7,0-.06-1.77,5.87-9.36,6.26.63-2.54,1.17-5.08,1.64-7.62C1036.63,249.15,1040.42,242.6,1045.07,243.5Z" transform="translate(-3.28)"/><path class="cls-9" d="M1044.14,250.82c-.07.6-.14,1.21-.22,1.81.08-.07-1.29,7.27-9.75,6.92.25-.92.49-1.85.72-2.77C1034.85,256.84,1042.05,255.88,1044.14,250.82Z" transform="translate(-3.28)"/><path class="cls-10" d="M1044.07,247.61l-.18,1.81c.08-.08-1.13,7.24-9.43,6.92q.35-1.38.66-2.76C1035.43,252.2,1042.11,252.66,1044.07,247.61Z" transform="translate(-3.28)"/><path class="cls-7" d="M1054.23,234.66a128.81,128.81,0,0,1-.36,14.17s-.08,1.45-2.59,4.28a8.74,8.74,0,0,1-6.54,2.83l-.88.07a131,131,0,0,0,1.77-13.38,14.67,14.67,0,0,1,2.65-4.49C1049.9,236.49,1049.9,236.57,1054.23,234.66Z" transform="translate(-3.28)"/><path class="cls-8" d="M1053.48,238.32v-2.8a11,11,0,0,0-7.45,7.41c.08.81.14,1.61.2,2.41C1046.25,245.28,1046.69,239.89,1053.48,238.32Z" transform="translate(-3.28)"/><path class="cls-6" d="M1053.88,238.6c0,2.35-.08,4.71-.22,7.09.06-.07-1.26,6-8.82,7.1.41-2.59.74-5.18,1-7.75C1045.93,245,1049.14,238.13,1053.88,238.6Z" transform="translate(-3.28)"/><path class="cls-9" d="M1053.58,246c0,.62,0,1.23-.06,1.84.08-.08-.66,7.38-9.15,7.79.17-1,.33-1.89.47-2.83C1044.81,252.85,1051.92,251.25,1053.58,246Z" transform="translate(-3.28)"/><path class="cls-10" d="M1053.23,242.8v1.82c.07-.08-.5,7.34-8.83,7.77.15-.94.29-1.88.41-2.82C1044.76,249.63,1051.71,248,1053.23,242.8Z" transform="translate(-3.28)"/><path class="cls-7" d="M1063.27,228.1a130.15,130.15,0,0,1,1,14.22s.06,1.46-2.18,4.55a8.88,8.88,0,0,1-6.26,3.51l-.88.16a133,133,0,0,0,.48-13.54,14.52,14.52,0,0,1,2.21-4.77C1059.11,230.41,1059.12,230.49,1063.27,228.1Z" transform="translate(-3.28)"/><path class="cls-8" d="M1062.87,231.85c-.09-.94-.18-1.87-.29-2.8a11.2,11.2,0,0,0-6.73,8.21c.14.8.29,1.59.42,2.39C1056.31,239.58,1056.23,234.16,1062.87,231.85Z" transform="translate(-3.28)"/><path class="cls-6" d="M1063.3,232.08c.22,2.35.38,4.73.47,7.12,0-.07-.69,6.17-8.14,8q.24-3.94.23-7.84C1056,239.36,1058.51,232.14,1063.3,232.08Z" transform="translate(-3.28)"/><path class="cls-9" d="M1063.72,239.51c0,.62.08,1.23.11,1.84.07-.09.05,7.46-8.4,8.75.07-1,.14-1.92.2-2.88C1055.6,247.29,1062.56,245,1063.72,239.51Z" transform="translate(-3.28)"/><path class="cls-10" d="M1063.05,236.36c.06.6.11,1.21.16,1.82.07-.09.2,7.4-8.08,8.7.06-1,.1-1.91.14-2.86C1055.24,244.09,1062,241.75,1063.05,236.36Z" transform="translate(-3.28)"/><path class="cls-7" d="M1070.79,221.41a130.26,130.26,0,0,1,2.22,14.16s.19,1.46-1.79,4.78a9,9,0,0,1-6,4.11l-.87.24a131.15,131.15,0,0,0-.68-13.59,15.17,15.17,0,0,1,1.81-5C1066.82,224.14,1066.83,224.22,1070.79,221.41Z" transform="translate(-3.28)"/><path class="cls-8" d="M1070.71,225.21c-.17-.93-.34-1.86-.53-2.78,0,.07-5.5,2.62-6,8.9.22.78.43,1.57.64,2.35C1064.8,233.61,1064.25,228.19,1070.71,225.21Z" transform="translate(-3.28)"/><path class="cls-6" d="M1071.16,225.4q.63,3.51,1.08,7.09c0-.08-.16,6.27-7.47,8.83-.06-2.64-.21-5.27-.43-7.87C1064.43,233.42,1066.37,225.94,1071.16,225.4Z" transform="translate(-3.28)"/><path class="cls-9" d="M1072.21,232.81c.1.61.19,1.22.28,1.84,0-.1.68,7.47-7.67,9.57v-2.9C1064.75,241.4,1071.52,238.38,1072.21,232.81Z" transform="translate(-3.28)"/><path class="cls-10" d="M1071.28,229.71c.11.61.21,1.21.31,1.82.06-.1.84,7.4-7.35,9.49,0-1-.06-1.91-.1-2.87C1064.11,238.22,1070.72,235.23,1071.28,229.71Z" transform="translate(-3.28)"/><path class="cls-7" d="M1077.77,213.9a131.69,131.69,0,0,1,3.43,14s.3,1.45-1.4,5a9.18,9.18,0,0,1-5.63,4.72l-.84.33a132,132,0,0,0-1.85-13.57,15.67,15.67,0,0,1,1.39-5.2C1074,217.06,1074,217.15,1077.77,213.9Z" transform="translate(-3.28)"/><path class="cls-8" d="M1078,217.74c-.25-.92-.51-1.84-.77-2.75,0,.07-5.29,3.21-5.31,9.57.29.77.57,1.53.84,2.3C1072.79,226.78,1071.78,221.41,1078,217.74Z" transform="translate(-3.28)"/><path class="cls-6" d="M1078.48,217.88c.62,2.31,1.18,4.65,1.67,7,0-.08.38,6.33-6.72,9.62-.3-2.67-.67-5.28-1.11-7.85C1072.41,226.63,1073.71,218.93,1078.48,217.88Z" transform="translate(-3.28)"/><path class="cls-10" d="M1079,222.21c.16.59.31,1.19.46,1.79,0-.11,1.47,7.37-6.55,10.28-.11-1-.23-1.92-.35-2.87C1072.5,231.48,1078.87,227.82,1079,222.21Z" transform="translate(-3.28)"/><path class="cls-7" d="M1084.13,205.57a133.6,133.6,0,0,1,4.62,13.79s.43,1.43-1,5.17a9.45,9.45,0,0,1-5.25,5.33l-.82.42a134.13,134.13,0,0,0-3-13.46,15.45,15.45,0,0,1,1-5.38C1080.63,209.17,1080.66,209.26,1084.13,205.57Z" transform="translate(-3.28)"/><path class="cls-8" d="M1084.69,209.43c-.32-.91-.66-1.8-1-2.7,0,.08-5,3.83-4.51,10.23.35.74.69,1.48,1,2.22C1080.23,219.09,1078.76,213.81,1084.69,209.43Z" transform="translate(-3.28)"/><path class="cls-6" d="M1085.18,209.52c.81,2.27,1.56,4.57,2.27,6.91,0-.09.91,6.35-5.93,10.39q-.78-3.94-1.78-7.78C1079.83,219,1080.48,211.1,1085.18,209.52Z" transform="translate(-3.28)"/><path class="cls-9" d="M1087.48,216.76c.2.6.4,1.19.59,1.79,0-.12,2,7.37-6,11.16-.17-1-.35-1.93-.54-2.89C1081.51,226.91,1087.74,222.51,1087.48,216.76Z" transform="translate(-3.28)"/><path class="cls-9" d="M1080.16,225.23c.14.6.29,1.21.43,1.82.05-.11,1.32,7.44-6.87,10.37-.09-1-.19-1.94-.29-2.9C1073.41,234.6,1079.94,230.9,1080.16,225.23Z" transform="translate(-3.28)"/><path class="cls-10" d="M1086,213.84c.2.58.41,1.17.61,1.76,0-.12,2.09,7.28-5.7,11q-.29-1.42-.6-2.85C1080.33,223.87,1086.4,219.51,1086,213.84Z" transform="translate(-3.28)"/><path class="cls-7" d="M1090.48,195.23a134.87,134.87,0,0,1,5.93,13.43s.57,1.4-.48,5.35a9.93,9.93,0,0,1-4.76,6l-.78.52a133.36,133.36,0,0,0-4.29-13.23,16.58,16.58,0,0,1,.44-5.57C1087.31,199.33,1087.34,199.42,1090.48,195.23Z" transform="translate(-3.28)"/><path class="cls-8" d="M1091.41,199.08c-.42-.88-.84-1.75-1.27-2.61,0,.08-4.69,4.52-3.56,10.93.42.7.84,1.41,1.25,2.12C1087.84,209.43,1085.86,204.27,1091.41,199.08Z" transform="translate(-3.28)"/><path class="cls-6" d="M1091.9,199.12q1.55,3.3,2.94,6.73c0-.1,1.5,6.33-5,11.24q-1.15-3.9-2.53-7.65C1087.43,209.38,1087.34,201.31,1091.9,199.12Z" transform="translate(-3.28)"/><path class="cls-9" d="M1094.9,206.18l.75,1.74c0-.13,2.65,7.24-5,12-.26-1-.53-1.9-.81-2.84C1089.86,217.18,1095.7,212,1094.9,206.18Z" transform="translate(-3.28)"/><path class="cls-10" d="M1093.16,203.39l.79,1.71c0-.12,2.78,7.14-4.68,11.86-.28-.94-.57-1.87-.87-2.8C1088.39,214.25,1094.07,209.11,1093.16,203.39Z" transform="translate(-3.28)"/><path class="cls-7" d="M1095.33,185.17a136.09,136.09,0,0,1,7.08,13s.68,1.37-.05,5.5a10.46,10.46,0,0,1-4.26,6.63l-.75.62a136.46,136.46,0,0,0-5.41-13,16.59,16.59,0,0,1,0-5.71C1092.48,189.72,1092.53,189.81,1095.33,185.17Z" transform="translate(-3.28)"/><path class="cls-8" d="M1096.58,189c-.48-.85-1-1.7-1.48-2.53,0,.1-4.34,5.16-2.67,11.54.48.67,1,1.34,1.43,2C1093.86,199.93,1091.44,194.93,1096.58,189Z" transform="translate(-3.28)"/><path class="cls-6" d="M1097.08,189c1.22,2.13,2.39,4.3,3.51,6.53,0-.1,2,6.29-4,12q-1.48-3.83-3.17-7.48C1093.45,199.93,1092.68,191.74,1097.08,189Z" transform="translate(-3.28)"/><path class="cls-9" d="M1100.68,195.83l.9,1.68c0-.13,3.27,7.09-4,12.76-.35-.94-.7-1.87-1.06-2.79C1096.54,207.57,1102,201.66,1100.68,195.83Z" transform="translate(-3.28)"/><path class="cls-10" d="M1098.7,193.19l.93,1.66c0-.14,3.39,7-3.7,12.57-.36-.93-.73-1.84-1.11-2.75C1094.82,204.76,1100.09,198.92,1098.7,193.19Z" transform="translate(-3.28)"/><path class="cls-9" d="M881.45,194.65l-.73,1.6s-3,6.1-8.61,3l1.19-2.44S878.43,198.4,881.45,194.65Z" transform="translate(-3.28)"/><path class="cls-7" d="M896.37,192.34l-11.64,7s-1.16.69-4.07.46a5,5,0,0,1-4.18-3l-.35-.58,11.06-6.62a10.52,10.52,0,0,1,4.53-.34C893.58,189.66,893.58,189.66,896.37,192.34Z" transform="translate(-3.28)"/><path class="cls-8" d="M893.11,193.5l2.33-1.4a7,7,0,0,0-8.37-2.1l-1.86,1.51A5.8,5.8,0,0,1,893.11,193.5Z" transform="translate(-3.28)"/><path class="cls-6" d="M893,194l-5.82,3.48a6.78,6.78,0,0,1-8.26-2.57l6.41-3.83S892.07,189.77,893,194Z" transform="translate(-3.28)"/><path class="cls-9" d="M886.91,197.54l-1.48,1s-5.82,3.48-8.83-2.23l2.32-1.39S882.34,199,886.91,197.54Z" transform="translate(-3.28)"/><path class="cls-10" d="M889.39,195.58l-1.48.94s-5.82,3.48-8.84-2.22l2.33-1.4S884.81,197.07,889.39,195.58Z" transform="translate(-3.28)"/><path class="cls-7" d="M1109.63,183.68l-.12,13.56s0,1.36-1.72,3.72a5,5,0,0,1-4.77,2h-.68l.12-12.88a10.34,10.34,0,0,1,2.07-4.05C1105.9,184.67,1105.9,184.67,1109.63,183.68Z" transform="translate(-3.28)"/><path class="cls-8" d="M1108.93,187.07v-2.72a7,7,0,0,0-6.16,6.05l.32,2.38A5.81,5.81,0,0,1,1108.93,187.07Z" transform="translate(-3.28)"/><path class="cls-6" d="M1109.26,187.41l-.06,6.78a6.75,6.75,0,0,1-6.49,5.71l.07-7.46S1105.21,186,1109.26,187.41Z" transform="translate(-3.28)"/><path class="cls-9" d="M1109.15,194.47v1.75s-.06,6.78-6.49,6.39V199.9S1108,199.15,1109.15,194.47Z" transform="translate(-3.28)"/><path class="cls-10" d="M1108.76,191.33v1.75s-.06,6.79-6.5,6.39v-2.71S1107.65,196,1108.76,191.33Z" transform="translate(-3.28)"/><path class="cls-7" d="M1101.91,184.12l3.47,13.11s.35,1.31-.68,4a5,5,0,0,1-4.07,3.18l-.65.17-3.3-12.45a10.51,10.51,0,0,1,.92-4.45C1098.57,186.06,1098.57,186.06,1101.91,184.12Z" transform="translate(-3.28)"/><path class="cls-8" d="M1102.12,187.57l-.69-2.62a7,7,0,0,0-4.34,7.46l.94,2.21A5.81,5.81,0,0,1,1102.12,187.57Z" transform="translate(-3.28)"/><path class="cls-6" d="M1102.54,187.81l1.73,6.56a6.74,6.74,0,0,1-4.75,7.22l-1.91-7.21S1098.26,187.54,1102.54,187.81Z" transform="translate(-3.28)"/><path class="cls-9" d="M1104.3,194.65l.5,1.68s1.73,6.56-4.58,7.88l-.7-2.62S1104.47,199.46,1104.3,194.65Z" transform="translate(-3.28)"/><path class="cls-10" d="M1103.09,191.73l.5,1.68s1.74,6.55-4.58,7.88l-.69-2.63S1103.26,196.53,1103.09,191.73Z" transform="translate(-3.28)"/><path class="cls-7" d="M887.83,186.7l-8.21,10.79s-.82,1.08-3.61,1.95a5,5,0,0,1-5-1.26l-.54-.41,7.8-10.25a10.49,10.49,0,0,1,4.09-2C884.25,185.25,884.25,185.25,887.83,186.7Z" transform="translate(-3.28)"/><path class="cls-8" d="M885.24,189l1.64-2.16a7,7,0,0,0-8.55,1.16l-1.17,2.1A5.81,5.81,0,0,1,885.24,189Z" transform="translate(-3.28)"/><path class="cls-6" d="M885.3,189.47l-4.1,5.39a6.76,6.76,0,0,1-8.62.69l4.52-5.94S882.89,185.92,885.3,189.47Z" transform="translate(-3.28)"/><path class="cls-9" d="M881,195.05l-1,1.43s-4.1,5.4-9,1.22l1.64-2.15S877.29,198.14,881,195.05Z" transform="translate(-3.28)"/><path class="cls-10" d="M882.55,192.31l-1,1.42s-4.11,5.4-9,1.23l1.65-2.16S878.86,195.39,882.55,192.31Z" transform="translate(-3.28)"/></g></g></svg>