<svg xmlns="http://www.w3.org/2000/svg" viewBox="0 0 131.62 131.62"><defs><style>.cls-1{fill:#08a655;}.cls-2{fill:#fff;}</style></defs><title>hjerte</title><g id="Lag_2" data-name="Lag 2"><g id="Lag_1-2" data-name="Lag 1"><circle class="cls-1" cx="65.81" cy="65.81" r="65.81"/><path class="cls-2" d="M48.61,59.05s-3.09-6.19-6.53-8-3.33-3.78-12.62-3.9S13.53,55,13.53,55,8.37,62,8.37,69.83s5,18,5,18S24.08,102.85,29,106s2.4,3.32,19.6,15.13L57,115.35A197.48,197.48,0,0,0,75.21,99.18a98.56,98.56,0,0,0,10.2-13.53s4.48-9.33,3.56-17c0,0,.57-8-8.83-17.75,0,0-7.43-4.81-15.18-3.78S52.85,52.52,48.61,59.05Z"/><polygon class="cls-1" points="58.13 58.04 34.62 83.15 46.38 84.64 36.69 105.16 61.91 79.02 49.64 78.67 58.13 58.04"/><polygon class="cls-2" points="92.87 16.25 92.87 27.14 82.32 27.14 82.32 38.03 92.87 38.03 92.87 48.35 103.76 48.35 103.76 37.8 114.19 38.03 114.19 27.25 103.53 27.02 103.3 16.25 92.87 16.25"/></g></g></svg>