<svg xmlns="http://www.w3.org/2000/svg" viewBox="0 0 11.1 11.85"><defs><style>.cls-1{fill:#e8f5fe;}.cls-2{fill:none;}.cls-3{fill:#123f6e;}.cls-4{fill:#e9f6fe;}</style></defs><title>logo-hvid</title><g id="Lag_2" data-name="Lag 2"><g id="Lag_1-2" data-name="Lag 1"><path class="cls-1" d="M4.62,11.76a3.75,3.75,0,0,1-.75-.19A3.75,3.75,0,0,0,4.62,11.76Z"/><path class="cls-1" d="M8.24,6.47a3.72,3.72,0,0,1-2.67-1.6h0A3.67,3.67,0,0,0,8.24,6.47Z"/><path class="cls-1" d="M5.57,7.71h0A3.94,3.94,0,0,0,8.23,9.1,4,4,0,0,1,5.57,7.71Z"/><path class="cls-1" d="M.65,3.14a7.23,7.23,0,0,1,.4-.66A5.52,5.52,0,0,0,.65,3.14Z"/><path class="cls-1" d="M.06,5.12A5.88,5.88,0,0,1,.31,4,5.88,5.88,0,0,0,.06,5.12Z"/><path class="cls-1" d="M2.41,1,2.9.72C2.73.82,2.57.93,2.41,1Z"/><path class="cls-1" d="M5.56,3.47a3.64,3.64,0,0,1-2.81,1.6,3.65,3.65,0,0,0,2.82-1.6v0Z"/><path class="cls-1" d="M.33,3.93a7.12,7.12,0,0,1,.31-.76A6.36,6.36,0,0,0,.33,3.93Z"/><path class="cls-1" d="M4,.23,4.48.12Z"/><path class="cls-1" d="M5.66,0c.22,0,.44,0,.65.06C6.1,0,5.88,0,5.66,0Z"/><path class="cls-1" d="M4.84.06a3.88,3.88,0,0,1,.48,0Z"/><path class="cls-1" d="M3.25.54,3.54.41Z"/><path class="cls-1" d="M5.56,6.3A3.8,3.8,0,0,1,2.78,7.75,3.75,3.75,0,0,0,5.57,6.31v0Z"/><path class="cls-1" d="M3.82,11.56c-.22-.08-.44-.18-.65-.28C3.38,11.38,3.6,11.48,3.82,11.56Z"/><path class="cls-1" d="M1.8,1.57l.34-.31Z"/><path class="cls-1" d="M1.17,2.29c.14-.18.27-.35.42-.51C1.44,1.94,1.31,2.11,1.17,2.29Z"/><path class="cls-1" d="M0,5.91a6.3,6.3,0,0,1,.05-.75A6.3,6.3,0,0,0,0,5.91Z"/><path class="cls-1" d="M2.87,9.11a3.62,3.62,0,0,1-2.48-1C.31,7.87.23,7.63.17,7.38A6,6,0,0,0,.75,8.89a5.51,5.51,0,0,1-.36-.78A3.62,3.62,0,0,0,2.87,9.11Z"/><path class="cls-1" d="M1.73,10.22a7.45,7.45,0,0,1-.52-.6A7.45,7.45,0,0,0,1.73,10.22Z"/><path class="cls-1" d="M2.35,10.77c-.19-.15-.37-.31-.54-.47C2,10.46,2.16,10.62,2.35,10.77Z"/><path class="cls-1" d="M3,11.21a6.05,6.05,0,0,1-.63-.4A6.05,6.05,0,0,0,3,11.21Z"/><path class="cls-1" d="M0,6.53H0a5.83,5.83,0,0,1,0-.59H0A6.84,6.84,0,0,0,.15,7.3,7,7,0,0,1,0,6.52Z"/><path class="cls-1" d="M.46,5.54a3.64,3.64,0,0,0,2.44,1,3.67,3.67,0,0,1-2.44-1c-.13-.13-.27-.26-.4-.41v0C.13,5.24.27,5.37.46,5.54Z"/><path class="cls-1" d="M1.2,9.61a6.33,6.33,0,0,1-.44-.7A6.33,6.33,0,0,0,1.2,9.61Z"/><path class="cls-1" d="M6.51.1A5.65,5.65,0,0,1,10.76,4a3.77,3.77,0,0,1-2.43,1,3.78,3.78,0,0,0,2.46-1A6,6,0,0,1,11,5.17l0,0a5.81,5.81,0,0,1,.05.72c0,.22,0,.44,0,.65A4,4,0,0,1,8.26,7.73a4.07,4.07,0,0,0,2.8-1.16,6.45,6.45,0,0,1-.38,1.6l0,0a5.55,5.55,0,0,1-5.1,3.65,5.29,5.29,0,0,1-.8-.07,4.47,4.47,0,0,0,.82.07A5.74,5.74,0,0,0,11.1,5.93,5.82,5.82,0,0,0,6.51.1Z"/><path class="cls-2" d="M2.14,1.26,2.41,1Z"/><path class="cls-2" d="M6.31.07l.2,0Z"/><path class="cls-2" d="M3.54.41A5,5,0,0,1,4,.23,5,5,0,0,0,3.54.41Z"/><path class="cls-2" d="M2.9.72,3.25.54Z"/><path class="cls-2" d="M4.48.12c.12,0,.24,0,.36-.06A2.25,2.25,0,0,0,4.48.12Z"/><path class="cls-2" d="M.31,4l0,0s0,0,0,0Z"/><path class="cls-2" d="M.64,3.17v0Z"/><path class="cls-2" d="M1.8,1.57l-.21.21Z"/><path class="cls-2" d="M5.66,0H5.53L5.32,0h.34Z"/><path class="cls-2" d="M1.05,2.48l.12-.19Z"/><path class="cls-1" d="M2.75,5.07a3.64,3.64,0,0,0,2.81-1.6v0h0v0A3.71,3.71,0,0,0,8.33,5.06a3.77,3.77,0,0,0,2.43-1A5.65,5.65,0,0,0,6.51.1l-.2,0C6.1,0,5.88,0,5.66,0H5.32a3.88,3.88,0,0,0-.48,0c-.12,0-.24,0-.36.06L4,.23a5,5,0,0,0-.5.18L3.25.54,2.9.72,2.41,1l-.27.22-.34.31-.21.21c-.15.16-.28.33-.42.51l-.12.19a7.23,7.23,0,0,0-.4.66v0a7.12,7.12,0,0,0-.31.76l0,0A3.79,3.79,0,0,0,2.75,5.07Z"/><path class="cls-2" d="M2.4,10.81l0,0Z"/><path class="cls-2" d="M1.21,9.62h0Z"/><path class="cls-2" d="M1.81,10.3l-.08-.08Z"/><path class="cls-2" d="M.76,8.91v0Z"/><path class="cls-2" d="M4.73,11.78l-.11,0Z"/><path class="cls-2" d="M3.17,11.28,3,11.21Z"/><path class="cls-2" d="M3.87,11.57h0Z"/><path class="cls-1" d="M10.63,8.2a3.53,3.53,0,0,1-2.4.9A3.94,3.94,0,0,1,5.57,7.73a4,4,0,0,1-2.7,1.38,3.62,3.62,0,0,1-2.48-1,5.51,5.51,0,0,0,.36.78v0a6.33,6.33,0,0,0,.44.7h0a7.45,7.45,0,0,0,.52.6l.08.08c.17.16.35.32.54.47l0,0a6.05,6.05,0,0,0,.63.4l.14.07c.21.1.43.2.65.28h.05a3.75,3.75,0,0,0,.75.19l.11,0a5.29,5.29,0,0,0,.8.07A5.55,5.55,0,0,0,10.63,8.2Z"/><path class="cls-3" d="M5.57,3.45v0h0A3.64,3.64,0,0,0,8.33,5.06,3.71,3.71,0,0,1,5.57,3.45Z"/><path class="cls-4" d="M8.24,6.47A3.67,3.67,0,0,1,5.57,4.89h0V5h0V6.31h0A3.81,3.81,0,0,0,8.26,7.73,4,4,0,0,0,11,6.57c0-.21,0-.43,0-.65A5.81,5.81,0,0,0,11,5.2l-.32.33A3.64,3.64,0,0,1,8.24,6.47Z"/><path class="cls-4" d="M10.65,5.53a3.56,3.56,0,0,1-2.41.94,3.64,3.64,0,0,0,2.45-.94L11,5.2h0A3.11,3.11,0,0,1,10.65,5.53Z"/><path class="cls-3" d="M8.23,9.1a3.53,3.53,0,0,0,2.4-.9v0A3.49,3.49,0,0,1,8.23,9.1Z"/><path class="cls-3" d="M5.57,6.3h0A3.77,3.77,0,0,0,8.26,7.73,3.81,3.81,0,0,1,5.57,6.29Z"/><path class="cls-3" d="M.06,5.13Z"/><path class="cls-3" d="M.31,4V4h0Z"/><polygon class="cls-3" points="0.31 3.98 0.31 3.98 0.31 3.98 0.31 3.98 0.31 3.98"/><polygon class="cls-3" points="5.57 3.47 5.58 3.47 5.58 3.46 5.57 3.47"/><path class="cls-3" d="M.31,4A3.79,3.79,0,0,0,2.75,5.07,3.79,3.79,0,0,1,.31,4Z"/><path class="cls-3" d="M5.56,4.87h0v0h0Z"/><path class="cls-4" d="M.05,5.15h0Z"/><path class="cls-4" d="M0,5.92H0v0Z"/><path class="cls-4" d="M0,6.53H0A4.16,4.16,0,0,0,2.78,7.75,3.8,3.8,0,0,0,5.56,6.3h0V5h0V4.9A3.71,3.71,0,0,1,2.9,6.49a3.64,3.64,0,0,1-2.44-1c-.19-.17-.33-.3-.41-.39h0a6.3,6.3,0,0,0,0,.75v0a5.83,5.83,0,0,0,0,.59Z"/><path class="cls-4" d="M2.9,6.49A3.71,3.71,0,0,0,5.56,4.9v0A3.74,3.74,0,0,1,2.9,6.49Z"/><path class="cls-3" d="M.17,7.38a.19.19,0,0,0,0-.08A.19.19,0,0,1,.17,7.38Z"/><path class="cls-3" d="M5.56,7.72A4,4,0,0,1,2.87,9.11a4,4,0,0,0,2.7-1.38v0Z"/><polygon class="cls-3" points="5.57 6.31 5.58 6.31 5.58 6.3 5.57 6.31"/><path class="cls-3" d="M0,6.53H0A4.16,4.16,0,0,0,2.78,7.75,4.16,4.16,0,0,1,0,6.53Z"/></g></g></svg>