<svg xmlns="http://www.w3.org/2000/svg" viewBox="0 0 558.28 16.97"><defs><style>.cls-1{fill:none;}.cls-1,.cls-2,.cls-4{stroke:#1d5099;}.cls-1,.cls-2,.cls-4,.cls-5{stroke-miterlimit:10;}.cls-2{fill:#b0c8ff;}.cls-3{fill:#fff;}.cls-4{fill:#1d5099;}.cls-5{fill:#2668aa;stroke:#2668aa;}</style></defs><title>Asset 1</title><g id="Layer_2" data-name="Layer 2"><g id="Lag_1" data-name="Lag 1"><path class="cls-1" d="M473.54,1.05l-6,12.19s-.59,1.22-3.15,2.61a5,5,0,0,1-5.16-.25l-.61-.3,5.65-11.58A10.35,10.35,0,0,1,467.93,1C469.74.33,469.74.33,473.54,1.05Z"/><path class="cls-2" d="M471.44,3.8l1.19-2.43a7,7,0,0,0-8.16,2.81l-.73,2.28A5.8,5.8,0,0,1,471.44,3.8Z"/><path class="cls-3" d="M471.6,4.26l-3,6.09a6.77,6.77,0,0,1-8.32,2.36L463.58,6S468.54,1.25,471.6,4.26Z"/><path class="cls-4" d="M468.46,10.58l-.72,1.6s-3,6.09-8.62,3l1.19-2.44S465.44,14.33,468.46,10.58Z"/><path class="cls-5" d="M469.46,7.58l-.72,1.6s-3,6.09-8.62,3l1.19-2.44S466.44,11.33,469.46,7.58Z"/><path class="cls-1" d="M481.54,1.05l-6,12.19s-.59,1.22-3.15,2.61a5,5,0,0,1-5.16-.25l-.61-.3,5.65-11.58A10.35,10.35,0,0,1,475.93,1C477.74.33,477.74.33,481.54,1.05Z"/><path class="cls-2" d="M479.44,3.8l1.19-2.43a7,7,0,0,0-8.16,2.81l-.73,2.28A5.8,5.8,0,0,1,479.44,3.8Z"/><path class="cls-3" d="M479.6,4.26l-3,6.09a6.77,6.77,0,0,1-8.32,2.36L471.58,6S476.54,1.25,479.6,4.26Z"/><path class="cls-4" d="M476.46,10.58l-.72,1.6s-3,6.09-8.62,3l1.19-2.44S473.44,14.33,476.46,10.58Z"/><path class="cls-5" d="M477.46,7.58l-.72,1.6s-3,6.09-8.62,3l1.19-2.44S474.44,11.33,477.46,7.58Z"/><path class="cls-1" d="M490.54,1.05l-6,12.19s-.59,1.22-3.15,2.61a5,5,0,0,1-5.16-.25l-.61-.3,5.65-11.58A10.35,10.35,0,0,1,484.93,1C486.74.33,486.74.33,490.54,1.05Z"/><path class="cls-2" d="M488.44,3.8l1.19-2.43a7,7,0,0,0-8.16,2.81l-.73,2.28A5.8,5.8,0,0,1,488.44,3.8Z"/><path class="cls-3" d="M488.6,4.26l-3,6.09a6.77,6.77,0,0,1-8.32,2.36L480.58,6S485.54,1.25,488.6,4.26Z"/><path class="cls-4" d="M485.46,10.58l-.72,1.6s-3,6.09-8.62,3l1.19-2.44S482.44,14.33,485.46,10.58Z"/><path class="cls-5" d="M486.46,7.58l-.72,1.6s-3,6.09-8.62,3l1.19-2.44S483.44,11.33,486.46,7.58Z"/><path class="cls-1" d="M498.54,1.05l-6,12.19s-.59,1.22-3.15,2.61a5,5,0,0,1-5.16-.25l-.61-.3,5.65-11.58A10.35,10.35,0,0,1,492.93,1C494.74.33,494.74.33,498.54,1.05Z"/><path class="cls-2" d="M496.44,3.8l1.19-2.43a7,7,0,0,0-8.16,2.81l-.73,2.28A5.8,5.8,0,0,1,496.44,3.8Z"/><path class="cls-3" d="M496.6,4.26l-3,6.09a6.77,6.77,0,0,1-8.32,2.36L488.58,6S493.54,1.25,496.6,4.26Z"/><path class="cls-4" d="M493.46,10.58l-.72,1.6s-3,6.09-8.62,3l1.19-2.44S490.44,14.33,493.46,10.58Z"/><path class="cls-5" d="M494.46,7.58l-.72,1.6s-3,6.09-8.62,3l1.19-2.44S491.44,11.33,494.46,7.58Z"/><path class="cls-1" d="M506.54,1.05l-6,12.19s-.59,1.22-3.15,2.61a5,5,0,0,1-5.16-.25l-.61-.3,5.65-11.58A10.35,10.35,0,0,1,500.93,1C502.74.33,502.74.33,506.54,1.05Z"/><path class="cls-2" d="M504.44,3.8l1.19-2.43a7,7,0,0,0-8.16,2.81l-.73,2.28A5.8,5.8,0,0,1,504.44,3.8Z"/><path class="cls-3" d="M504.6,4.26l-3,6.09a6.77,6.77,0,0,1-8.32,2.36L496.58,6S501.54,1.25,504.6,4.26Z"/><path class="cls-4" d="M501.46,10.58l-.72,1.6s-3,6.09-8.62,3l1.19-2.44S498.44,14.33,501.46,10.58Z"/><path class="cls-5" d="M502.46,7.58l-.72,1.6s-3,6.09-8.62,3l1.19-2.44S499.44,11.33,502.46,7.58Z"/><path class="cls-1" d="M514.54,1.05l-5.95,12.19s-.59,1.22-3.15,2.61a5,5,0,0,1-5.16-.25l-.61-.3,5.65-11.58A10.35,10.35,0,0,1,508.93,1C510.74.33,510.74.33,514.54,1.05Z"/><path class="cls-2" d="M512.44,3.8l1.19-2.43a7,7,0,0,0-8.16,2.81l-.73,2.28A5.8,5.8,0,0,1,512.44,3.8Z"/><path class="cls-3" d="M512.6,4.26l-3,6.09a6.77,6.77,0,0,1-8.32,2.36L504.58,6S509.54,1.25,512.6,4.26Z"/><path class="cls-4" d="M509.46,10.58l-.72,1.6s-3,6.09-8.62,3l1.19-2.44S506.44,14.33,509.46,10.58Z"/><path class="cls-5" d="M510.46,7.58l-.72,1.6s-3,6.09-8.62,3l1.19-2.44S507.44,11.33,510.46,7.58Z"/><path class="cls-1" d="M523.54,1.05l-5.95,12.19s-.59,1.22-3.15,2.61a5,5,0,0,1-5.16-.25l-.61-.3,5.65-11.58A10.35,10.35,0,0,1,517.93,1C519.74.33,519.74.33,523.54,1.05Z"/><path class="cls-2" d="M521.44,3.8l1.19-2.43a7,7,0,0,0-8.16,2.81l-.73,2.28A5.8,5.8,0,0,1,521.44,3.8Z"/><path class="cls-3" d="M521.6,4.26l-3,6.09a6.77,6.77,0,0,1-8.32,2.36L513.58,6S518.54,1.25,521.6,4.26Z"/><path class="cls-4" d="M518.46,10.58l-.72,1.6s-3,6.09-8.62,3l1.19-2.44S515.44,14.33,518.46,10.58Z"/><path class="cls-5" d="M519.46,7.58l-.72,1.6s-3,6.09-8.62,3l1.19-2.44S516.44,11.33,519.46,7.58Z"/><path class="cls-1" d="M531.54,1.05l-5.95,12.19s-.59,1.22-3.15,2.61a5,5,0,0,1-5.16-.25l-.61-.3,5.65-11.58A10.35,10.35,0,0,1,525.93,1C527.74.33,527.74.33,531.54,1.05Z"/><path class="cls-2" d="M529.44,3.8l1.19-2.43a7,7,0,0,0-8.16,2.81l-.73,2.28A5.8,5.8,0,0,1,529.44,3.8Z"/><path class="cls-3" d="M529.6,4.26l-3,6.09a6.77,6.77,0,0,1-8.32,2.36L521.58,6S526.54,1.25,529.6,4.26Z"/><path class="cls-4" d="M526.46,10.58l-.72,1.6s-3,6.09-8.62,3l1.19-2.44S523.44,14.33,526.46,10.58Z"/><path class="cls-5" d="M527.46,7.58l-.72,1.6s-3,6.09-8.62,3l1.19-2.44S524.44,11.33,527.46,7.58Z"/><path class="cls-1" d="M540.54,1.05l-5.95,12.19s-.59,1.22-3.15,2.61a5,5,0,0,1-5.16-.25l-.61-.3,5.65-11.58A10.35,10.35,0,0,1,534.93,1C536.74.33,536.74.33,540.54,1.05Z"/><path class="cls-2" d="M538.44,3.8l1.19-2.43a7,7,0,0,0-8.16,2.81l-.73,2.28A5.8,5.8,0,0,1,538.44,3.8Z"/><path class="cls-3" d="M538.6,4.26l-3,6.09a6.77,6.77,0,0,1-8.32,2.36L530.58,6S535.54,1.25,538.6,4.26Z"/><path class="cls-4" d="M535.46,10.58l-.72,1.6s-3,6.09-8.62,3l1.19-2.44S532.44,14.33,535.46,10.58Z"/><path class="cls-5" d="M536.46,7.58l-.72,1.6s-3,6.09-8.62,3l1.19-2.44S533.44,11.33,536.46,7.58Z"/><path class="cls-1" d="M548.54,1.05l-5.95,12.19s-.59,1.22-3.15,2.61a5,5,0,0,1-5.16-.25l-.61-.3,5.65-11.58A10.35,10.35,0,0,1,542.93,1C544.74.33,544.74.33,548.54,1.05Z"/><path class="cls-2" d="M546.44,3.8l1.19-2.43a7,7,0,0,0-8.16,2.81l-.73,2.28A5.8,5.8,0,0,1,546.44,3.8Z"/><path class="cls-3" d="M546.6,4.26l-3,6.09a6.77,6.77,0,0,1-8.32,2.36L538.58,6S543.54,1.25,546.6,4.26Z"/><path class="cls-4" d="M543.46,10.58l-.72,1.6s-3,6.09-8.62,3l1.19-2.44S540.44,14.33,543.46,10.58Z"/><path class="cls-5" d="M544.46,7.58l-.72,1.6s-3,6.09-8.62,3l1.19-2.44S541.44,11.33,544.46,7.58Z"/><path class="cls-1" d="M557.54,1.05l-5.95,12.19s-.59,1.22-3.15,2.61a5,5,0,0,1-5.16-.25l-.61-.3,5.65-11.58A10.35,10.35,0,0,1,551.93,1C553.74.33,553.74.33,557.54,1.05Z"/><path class="cls-2" d="M555.44,3.8l1.19-2.43a7,7,0,0,0-8.16,2.81l-.73,2.28A5.8,5.8,0,0,1,555.44,3.8Z"/><path class="cls-3" d="M555.6,4.26l-3,6.09a6.77,6.77,0,0,1-8.32,2.36L547.58,6S552.54,1.25,555.6,4.26Z"/><path class="cls-4" d="M552.46,10.58l-.72,1.6s-3,6.09-8.62,3l1.19-2.44S549.44,14.33,552.46,10.58Z"/><path class="cls-5" d="M553.46,7.58l-.72,1.6s-3,6.09-8.62,3l1.19-2.44S550.44,11.33,553.46,7.58Z"/><path class="cls-1" d="M15.54,1.05,9.59,13.24S9,14.46,6.44,15.85a5,5,0,0,1-5.16-.25l-.61-.3L6.32,3.72A10.35,10.35,0,0,1,9.93,1C11.74.33,11.74.33,15.54,1.05Z"/><path class="cls-2" d="M13.44,3.8l1.19-2.43A7,7,0,0,0,6.47,4.18L5.74,6.46A5.8,5.8,0,0,1,13.44,3.8Z"/><path class="cls-3" d="M13.6,4.26l-3,6.09a6.77,6.77,0,0,1-8.32,2.36L5.58,6S10.54,1.25,13.6,4.26Z"/><path class="cls-5" d="M11.46,7.58l-.72,1.6s-3,6.09-8.62,3L3.31,9.71S8.44,11.33,11.46,7.58Z"/><path class="cls-1" d="M24.54,1.05,18.59,13.24s-.59,1.22-3.15,2.61a5,5,0,0,1-5.16-.25l-.61-.3L15.32,3.72A10.35,10.35,0,0,1,18.93,1C20.74.33,20.74.33,24.54,1.05Z"/><path class="cls-2" d="M22.44,3.8l1.19-2.43a7,7,0,0,0-8.16,2.81l-.73,2.28A5.8,5.8,0,0,1,22.44,3.8Z"/><path class="cls-3" d="M22.6,4.26l-3,6.09a6.77,6.77,0,0,1-8.32,2.36L14.58,6S19.54,1.25,22.6,4.26Z"/><path class="cls-4" d="M19.46,10.58l-.72,1.6s-3,6.09-8.62,3l1.19-2.44S16.44,14.33,19.46,10.58Z"/><path class="cls-5" d="M20.46,7.58l-.72,1.6s-3,6.09-8.62,3l1.19-2.44S17.44,11.33,20.46,7.58Z"/><path class="cls-1" d="M32.54,1.05,26.59,13.24s-.59,1.22-3.15,2.61a5,5,0,0,1-5.16-.25l-.61-.3L23.32,3.72A10.35,10.35,0,0,1,26.93,1C28.74.33,28.74.33,32.54,1.05Z"/><path class="cls-2" d="M30.44,3.8l1.19-2.43a7,7,0,0,0-8.16,2.81l-.73,2.28A5.8,5.8,0,0,1,30.44,3.8Z"/><path class="cls-3" d="M30.6,4.26l-3,6.09a6.77,6.77,0,0,1-8.32,2.36L22.58,6S27.54,1.25,30.6,4.26Z"/><path class="cls-4" d="M27.46,10.58l-.72,1.6s-3,6.09-8.62,3l1.19-2.44S24.44,14.33,27.46,10.58Z"/><path class="cls-5" d="M28.46,7.58l-.72,1.6s-3,6.09-8.62,3l1.19-2.44S25.44,11.33,28.46,7.58Z"/><path class="cls-1" d="M40.54,1.05,34.59,13.24s-.59,1.22-3.15,2.61a5,5,0,0,1-5.16-.25l-.61-.3L31.32,3.72A10.35,10.35,0,0,1,34.93,1C36.74.33,36.74.33,40.54,1.05Z"/><path class="cls-2" d="M38.44,3.8l1.19-2.43a7,7,0,0,0-8.16,2.81l-.73,2.28A5.8,5.8,0,0,1,38.44,3.8Z"/><path class="cls-3" d="M38.6,4.26l-3,6.09a6.77,6.77,0,0,1-8.32,2.36L30.58,6S35.54,1.25,38.6,4.26Z"/><path class="cls-4" d="M35.46,10.58l-.72,1.6s-3,6.09-8.62,3l1.19-2.44S32.44,14.33,35.46,10.58Z"/><path class="cls-5" d="M36.46,7.58l-.72,1.6s-3,6.09-8.62,3l1.19-2.44S33.44,11.33,36.46,7.58Z"/><path class="cls-1" d="M48.54,1.05,42.59,13.24s-.59,1.22-3.15,2.61a5,5,0,0,1-5.16-.25l-.61-.3L39.32,3.72A10.35,10.35,0,0,1,42.93,1C44.74.33,44.74.33,48.54,1.05Z"/><path class="cls-2" d="M46.44,3.8l1.19-2.43a7,7,0,0,0-8.16,2.81l-.73,2.28A5.8,5.8,0,0,1,46.44,3.8Z"/><path class="cls-3" d="M46.6,4.26l-3,6.09a6.77,6.77,0,0,1-8.32,2.36L38.58,6S43.54,1.25,46.6,4.26Z"/><path class="cls-4" d="M43.46,10.58l-.72,1.6s-3,6.09-8.62,3l1.19-2.44S40.44,14.33,43.46,10.58Z"/><path class="cls-5" d="M44.46,7.58l-.72,1.6s-3,6.09-8.62,3l1.19-2.44S41.44,11.33,44.46,7.58Z"/><path class="cls-1" d="M57.54,1.05,51.59,13.24s-.59,1.22-3.15,2.61a5,5,0,0,1-5.16-.25l-.61-.3L48.32,3.72A10.35,10.35,0,0,1,51.93,1C53.74.33,53.74.33,57.54,1.05Z"/><path class="cls-2" d="M55.44,3.8l1.19-2.43a7,7,0,0,0-8.16,2.81l-.73,2.28A5.8,5.8,0,0,1,55.44,3.8Z"/><path class="cls-3" d="M55.6,4.26l-3,6.09a6.77,6.77,0,0,1-8.32,2.36L47.58,6S52.54,1.25,55.6,4.26Z"/><path class="cls-4" d="M52.46,10.58l-.72,1.6s-3,6.09-8.62,3l1.19-2.44S49.44,14.33,52.46,10.58Z"/><path class="cls-5" d="M53.46,7.58l-.72,1.6s-3,6.09-8.62,3l1.19-2.44S50.44,11.33,53.46,7.58Z"/><path class="cls-1" d="M65.54,1.05l-6,12.19s-.59,1.22-3.15,2.61a5,5,0,0,1-5.16-.25l-.61-.3L56.32,3.72A10.35,10.35,0,0,1,59.93,1C61.74.33,61.74.33,65.54,1.05Z"/><path class="cls-2" d="M63.44,3.8l1.19-2.43a7,7,0,0,0-8.16,2.81l-.73,2.28A5.8,5.8,0,0,1,63.44,3.8Z"/><path class="cls-3" d="M63.6,4.26l-3,6.09a6.77,6.77,0,0,1-8.32,2.36L55.58,6S60.54,1.25,63.6,4.26Z"/><path class="cls-4" d="M60.46,10.58l-.72,1.6s-3,6.09-8.62,3l1.19-2.44S57.44,14.33,60.46,10.58Z"/><path class="cls-5" d="M61.46,7.58l-.72,1.6s-3,6.09-8.62,3l1.19-2.44S58.44,11.33,61.46,7.58Z"/><path class="cls-1" d="M73.54,1.05l-6,12.19s-.59,1.22-3.15,2.61a5,5,0,0,1-5.16-.25l-.61-.3L64.32,3.72A10.35,10.35,0,0,1,67.93,1C69.74.33,69.74.33,73.54,1.05Z"/><path class="cls-2" d="M71.44,3.8l1.19-2.43a7,7,0,0,0-8.16,2.81l-.73,2.28A5.8,5.8,0,0,1,71.44,3.8Z"/><path class="cls-3" d="M71.6,4.26l-3,6.09a6.77,6.77,0,0,1-8.32,2.36L63.58,6S68.54,1.25,71.6,4.26Z"/><path class="cls-4" d="M68.46,10.58l-.72,1.6s-3,6.09-8.62,3l1.19-2.44S65.44,14.33,68.46,10.58Z"/><path class="cls-5" d="M69.46,7.58l-.72,1.6s-3,6.09-8.62,3l1.19-2.44S66.44,11.33,69.46,7.58Z"/><path class="cls-1" d="M81.54,1.05l-6,12.19s-.59,1.22-3.15,2.61a5,5,0,0,1-5.16-.25l-.61-.3L72.32,3.72A10.35,10.35,0,0,1,75.93,1C77.74.33,77.74.33,81.54,1.05Z"/><path class="cls-2" d="M79.44,3.8l1.19-2.43a7,7,0,0,0-8.16,2.81l-.73,2.28A5.8,5.8,0,0,1,79.44,3.8Z"/><path class="cls-3" d="M79.6,4.26l-3,6.09a6.77,6.77,0,0,1-8.32,2.36L71.58,6S76.54,1.25,79.6,4.26Z"/><path class="cls-4" d="M76.46,10.58l-.72,1.6s-3,6.09-8.62,3l1.19-2.44S73.44,14.33,76.46,10.58Z"/><path class="cls-5" d="M77.46,7.58l-.72,1.6s-3,6.09-8.62,3l1.19-2.44S74.44,11.33,77.46,7.58Z"/><path class="cls-1" d="M90.54,1.05l-6,12.19s-.59,1.22-3.15,2.61a5,5,0,0,1-5.16-.25l-.61-.3L81.32,3.72A10.35,10.35,0,0,1,84.93,1C86.74.33,86.74.33,90.54,1.05Z"/><path class="cls-2" d="M88.44,3.8l1.19-2.43a7,7,0,0,0-8.16,2.81l-.73,2.28A5.8,5.8,0,0,1,88.44,3.8Z"/><path class="cls-3" d="M88.6,4.26l-3,6.09a6.77,6.77,0,0,1-8.32,2.36L80.58,6S85.54,1.25,88.6,4.26Z"/><path class="cls-4" d="M85.46,10.58l-.72,1.6s-3,6.09-8.62,3l1.19-2.44S82.44,14.33,85.46,10.58Z"/><path class="cls-5" d="M86.46,7.58l-.72,1.6s-3,6.09-8.62,3l1.19-2.44S83.44,11.33,86.46,7.58Z"/><path class="cls-1" d="M98.54,1.05l-6,12.19s-.59,1.22-3.15,2.61a5,5,0,0,1-5.16-.25l-.61-.3L89.32,3.72A10.35,10.35,0,0,1,92.93,1C94.74.33,94.74.33,98.54,1.05Z"/><path class="cls-2" d="M96.44,3.8l1.19-2.43a7,7,0,0,0-8.16,2.81l-.73,2.28A5.8,5.8,0,0,1,96.44,3.8Z"/><path class="cls-3" d="M96.6,4.26l-3,6.09a6.77,6.77,0,0,1-8.32,2.36L88.58,6S93.54,1.25,96.6,4.26Z"/><path class="cls-4" d="M93.46,10.58l-.72,1.6s-3,6.09-8.62,3l1.19-2.44S90.44,14.33,93.46,10.58Z"/><path class="cls-5" d="M94.46,7.58l-.72,1.6s-3,6.09-8.62,3l1.19-2.44S91.44,11.33,94.46,7.58Z"/><path class="cls-1" d="M106.54,1.05l-6,12.19s-.59,1.22-3.15,2.61a5,5,0,0,1-5.16-.25l-.61-.3L97.32,3.72A10.35,10.35,0,0,1,100.93,1C102.74.33,102.74.33,106.54,1.05Z"/><path class="cls-2" d="M104.44,3.8l1.19-2.43a7,7,0,0,0-8.16,2.81l-.73,2.28A5.8,5.8,0,0,1,104.44,3.8Z"/><path class="cls-3" d="M104.6,4.26l-3,6.09a6.77,6.77,0,0,1-8.32,2.36L96.58,6S101.54,1.25,104.6,4.26Z"/><path class="cls-5" d="M102.46,7.58l-.72,1.6s-3,6.09-8.62,3l1.19-2.44S99.44,11.33,102.46,7.58Z"/><path class="cls-1" d="M114.54,1.05l-6,12.19s-.59,1.22-3.15,2.61a5,5,0,0,1-5.16-.25l-.61-.3,5.65-11.58A10.35,10.35,0,0,1,108.93,1C110.74.33,110.74.33,114.54,1.05Z"/><path class="cls-2" d="M112.44,3.8l1.19-2.43a7,7,0,0,0-8.16,2.81l-.73,2.28A5.8,5.8,0,0,1,112.44,3.8Z"/><path class="cls-3" d="M112.6,4.26l-3,6.09a6.77,6.77,0,0,1-8.32,2.36L104.58,6S109.54,1.25,112.6,4.26Z"/><path class="cls-4" d="M109.46,10.58l-.72,1.6s-3,6.09-8.62,3l1.19-2.44S106.44,14.33,109.46,10.58Z"/><path class="cls-4" d="M101.46,10.58l-.72,1.6s-3,6.09-8.62,3l1.19-2.44S98.44,14.33,101.46,10.58Z"/><path class="cls-5" d="M110.46,7.58l-.72,1.6s-3,6.09-8.62,3l1.19-2.44S107.44,11.33,110.46,7.58Z"/><path class="cls-1" d="M123.54,1.05l-6,12.19s-.59,1.22-3.15,2.61a5,5,0,0,1-5.16-.25l-.61-.3,5.65-11.58A10.35,10.35,0,0,1,117.93,1C119.74.33,119.74.33,123.54,1.05Z"/><path class="cls-2" d="M121.44,3.8l1.19-2.43a7,7,0,0,0-8.16,2.81l-.73,2.28A5.8,5.8,0,0,1,121.44,3.8Z"/><path class="cls-3" d="M121.6,4.26l-3,6.09a6.77,6.77,0,0,1-8.32,2.36L113.58,6S118.54,1.25,121.6,4.26Z"/><path class="cls-4" d="M118.46,10.58l-.72,1.6s-3,6.09-8.62,3l1.19-2.44S115.44,14.33,118.46,10.58Z"/><path class="cls-5" d="M119.46,7.58l-.72,1.6s-3,6.09-8.62,3l1.19-2.44S116.44,11.33,119.46,7.58Z"/><path class="cls-1" d="M131.54,1.05l-5.95,12.19s-.59,1.22-3.15,2.61a5,5,0,0,1-5.16-.25l-.61-.3,5.65-11.58A10.35,10.35,0,0,1,125.93,1C127.74.33,127.74.33,131.54,1.05Z"/><path class="cls-2" d="M129.44,3.8l1.19-2.43a7,7,0,0,0-8.16,2.81l-.73,2.28A5.8,5.8,0,0,1,129.44,3.8Z"/><path class="cls-3" d="M129.6,4.26l-3,6.09a6.77,6.77,0,0,1-8.32,2.36L121.58,6S126.54,1.25,129.6,4.26Z"/><path class="cls-4" d="M126.46,10.58l-.72,1.6s-3,6.09-8.62,3l1.19-2.44S123.44,14.33,126.46,10.58Z"/><path class="cls-5" d="M127.46,7.58l-.72,1.6s-3,6.09-8.62,3l1.19-2.44S124.44,11.33,127.46,7.58Z"/><path class="cls-1" d="M140.54,1.05l-5.95,12.19s-.59,1.22-3.15,2.61a5,5,0,0,1-5.16-.25l-.61-.3,5.65-11.58A10.35,10.35,0,0,1,134.93,1C136.74.33,136.74.33,140.54,1.05Z"/><path class="cls-2" d="M138.44,3.8l1.19-2.43a7,7,0,0,0-8.16,2.81l-.73,2.28A5.8,5.8,0,0,1,138.44,3.8Z"/><path class="cls-3" d="M138.6,4.26l-3,6.09a6.77,6.77,0,0,1-8.32,2.36L130.58,6S135.54,1.25,138.6,4.26Z"/><path class="cls-4" d="M135.46,10.58l-.72,1.6s-3,6.09-8.62,3l1.19-2.44S132.44,14.33,135.46,10.58Z"/><path class="cls-5" d="M136.46,7.58l-.72,1.6s-3,6.09-8.62,3l1.19-2.44S133.44,11.33,136.46,7.58Z"/><path class="cls-1" d="M148.54,1.05l-5.95,12.19s-.59,1.22-3.15,2.61a5,5,0,0,1-5.16-.25l-.61-.3,5.65-11.58A10.35,10.35,0,0,1,142.93,1C144.74.33,144.74.33,148.54,1.05Z"/><path class="cls-2" d="M146.44,3.8l1.19-2.43a7,7,0,0,0-8.16,2.81l-.73,2.28A5.8,5.8,0,0,1,146.44,3.8Z"/><path class="cls-3" d="M146.6,4.26l-3,6.09a6.77,6.77,0,0,1-8.32,2.36L138.58,6S143.54,1.25,146.6,4.26Z"/><path class="cls-4" d="M143.46,10.58l-.72,1.6s-3,6.09-8.62,3l1.19-2.44S140.44,14.33,143.46,10.58Z"/><path class="cls-5" d="M144.46,7.58l-.72,1.6s-3,6.09-8.62,3l1.19-2.44S141.44,11.33,144.46,7.58Z"/><path class="cls-1" d="M157.54,1.05l-5.95,12.19s-.59,1.22-3.15,2.61a5,5,0,0,1-5.16-.25l-.61-.3,5.65-11.58A10.35,10.35,0,0,1,151.93,1C153.74.33,153.74.33,157.54,1.05Z"/><path class="cls-2" d="M155.44,3.8l1.19-2.43a7,7,0,0,0-8.16,2.81l-.73,2.28A5.8,5.8,0,0,1,155.44,3.8Z"/><path class="cls-3" d="M155.6,4.26l-3,6.09a6.77,6.77,0,0,1-8.32,2.36L147.58,6S152.54,1.25,155.6,4.26Z"/><path class="cls-4" d="M152.46,10.58l-.72,1.6s-3,6.09-8.62,3l1.19-2.44S149.44,14.33,152.46,10.58Z"/><path class="cls-5" d="M153.46,7.58l-.72,1.6s-3,6.09-8.62,3l1.19-2.44S150.44,11.33,153.46,7.58Z"/><path class="cls-1" d="M165.54,1.05l-5.95,12.19s-.59,1.22-3.15,2.61a5,5,0,0,1-5.16-.25l-.61-.3,5.65-11.58A10.35,10.35,0,0,1,159.93,1C161.74.33,161.74.33,165.54,1.05Z"/><path class="cls-2" d="M163.44,3.8l1.19-2.43a7,7,0,0,0-8.16,2.81l-.73,2.28A5.8,5.8,0,0,1,163.44,3.8Z"/><path class="cls-3" d="M163.6,4.26l-3,6.09a6.77,6.77,0,0,1-8.32,2.36L155.58,6S160.54,1.25,163.6,4.26Z"/><path class="cls-4" d="M160.46,10.58l-.72,1.6s-3,6.09-8.62,3l1.19-2.44S157.44,14.33,160.46,10.58Z"/><path class="cls-5" d="M161.46,7.58l-.72,1.6s-3,6.09-8.62,3l1.19-2.44S158.44,11.33,161.46,7.58Z"/><path class="cls-1" d="M173.54,1.05l-5.95,12.19s-.59,1.22-3.15,2.61a5,5,0,0,1-5.16-.25l-.61-.3,5.65-11.58A10.35,10.35,0,0,1,167.93,1C169.74.33,169.74.33,173.54,1.05Z"/><path class="cls-2" d="M171.44,3.8l1.19-2.43a7,7,0,0,0-8.16,2.81l-.73,2.28A5.8,5.8,0,0,1,171.44,3.8Z"/><path class="cls-3" d="M171.6,4.26l-3,6.09a6.77,6.77,0,0,1-8.32,2.36L163.58,6S168.54,1.25,171.6,4.26Z"/><path class="cls-4" d="M168.46,10.58l-.72,1.6s-3,6.09-8.62,3l1.19-2.44S165.44,14.33,168.46,10.58Z"/><path class="cls-5" d="M169.46,7.58l-.72,1.6s-3,6.09-8.62,3l1.19-2.44S166.44,11.33,169.46,7.58Z"/><path class="cls-1" d="M181.54,1.05l-5.95,12.19s-.59,1.22-3.15,2.61a5,5,0,0,1-5.16-.25l-.61-.3,5.65-11.58A10.35,10.35,0,0,1,175.93,1C177.74.33,177.74.33,181.54,1.05Z"/><path class="cls-2" d="M179.44,3.8l1.19-2.43a7,7,0,0,0-8.16,2.81l-.73,2.28A5.8,5.8,0,0,1,179.44,3.8Z"/><path class="cls-3" d="M179.6,4.26l-3,6.09a6.77,6.77,0,0,1-8.32,2.36L171.58,6S176.54,1.25,179.6,4.26Z"/><path class="cls-4" d="M176.46,10.58l-.72,1.6s-3,6.09-8.62,3l1.19-2.44S173.44,14.33,176.46,10.58Z"/><path class="cls-5" d="M177.46,7.58l-.72,1.6s-3,6.09-8.62,3l1.19-2.44S174.44,11.33,177.46,7.58Z"/><path class="cls-1" d="M190.54,1.05l-5.95,12.19s-.59,1.22-3.15,2.61a5,5,0,0,1-5.16-.25l-.61-.3,5.65-11.58A10.35,10.35,0,0,1,184.93,1C186.74.33,186.74.33,190.54,1.05Z"/><path class="cls-2" d="M188.44,3.8l1.19-2.43a7,7,0,0,0-8.16,2.81l-.73,2.28A5.8,5.8,0,0,1,188.44,3.8Z"/><path class="cls-3" d="M188.6,4.26l-3,6.09a6.77,6.77,0,0,1-8.32,2.36L180.58,6S185.54,1.25,188.6,4.26Z"/><path class="cls-4" d="M185.46,10.58l-.72,1.6s-3,6.09-8.62,3l1.19-2.44S182.44,14.33,185.46,10.58Z"/><path class="cls-5" d="M186.46,7.58l-.72,1.6s-3,6.09-8.62,3l1.19-2.44S183.44,11.33,186.46,7.58Z"/><path class="cls-1" d="M198.54,1.05l-5.95,12.19s-.59,1.22-3.15,2.61a5,5,0,0,1-5.16-.25l-.61-.3,5.65-11.58A10.35,10.35,0,0,1,192.93,1C194.74.33,194.74.33,198.54,1.05Z"/><path class="cls-2" d="M196.44,3.8l1.19-2.43a7,7,0,0,0-8.16,2.81l-.73,2.28A5.8,5.8,0,0,1,196.44,3.8Z"/><path class="cls-3" d="M196.6,4.26l-3,6.09a6.77,6.77,0,0,1-8.32,2.36L188.58,6S193.54,1.25,196.6,4.26Z"/><path class="cls-4" d="M193.46,10.58l-.72,1.6s-3,6.09-8.62,3l1.19-2.44S190.44,14.33,193.46,10.58Z"/><path class="cls-5" d="M194.46,7.58l-.72,1.6s-3,6.09-8.62,3l1.19-2.44S191.44,11.33,194.46,7.58Z"/><path class="cls-1" d="M207.54,1.05l-5.95,12.19s-.59,1.22-3.15,2.61a5,5,0,0,1-5.16-.25l-.61-.3,5.65-11.58A10.35,10.35,0,0,1,201.93,1C203.74.33,203.74.33,207.54,1.05Z"/><path class="cls-2" d="M205.44,3.8l1.19-2.43a7,7,0,0,0-8.16,2.81l-.73,2.28A5.8,5.8,0,0,1,205.44,3.8Z"/><path class="cls-3" d="M205.6,4.26l-3,6.09a6.77,6.77,0,0,1-8.32,2.36L197.58,6S202.54,1.25,205.6,4.26Z"/><path class="cls-4" d="M202.46,10.58l-.72,1.6s-3,6.09-8.62,3l1.19-2.44S199.44,14.33,202.46,10.58Z"/><path class="cls-5" d="M203.46,7.58l-.72,1.6s-3,6.09-8.62,3l1.19-2.44S200.44,11.33,203.46,7.58Z"/><path class="cls-1" d="M215.54,1.05l-5.95,12.19s-.59,1.22-3.15,2.61a5,5,0,0,1-5.16-.25l-.61-.3,5.65-11.58A10.35,10.35,0,0,1,209.93,1C211.74.33,211.74.33,215.54,1.05Z"/><path class="cls-2" d="M213.44,3.8l1.19-2.43a7,7,0,0,0-8.16,2.81l-.73,2.28A5.8,5.8,0,0,1,213.44,3.8Z"/><path class="cls-3" d="M213.6,4.26l-3,6.09a6.77,6.77,0,0,1-8.32,2.36L205.58,6S210.54,1.25,213.6,4.26Z"/><path class="cls-4" d="M210.46,10.58l-.72,1.6s-3,6.09-8.62,3l1.19-2.44S207.44,14.33,210.46,10.58Z"/><path class="cls-5" d="M211.46,7.58l-.72,1.6s-3,6.09-8.62,3l1.19-2.44S208.44,11.33,211.46,7.58Z"/><path class="cls-1" d="M224.54,1.05l-5.95,12.19s-.59,1.22-3.15,2.61a5,5,0,0,1-5.16-.25l-.61-.3,5.65-11.58A10.35,10.35,0,0,1,218.93,1C220.74.33,220.74.33,224.54,1.05Z"/><path class="cls-2" d="M222.44,3.8l1.19-2.43a7,7,0,0,0-8.16,2.81l-.73,2.28A5.8,5.8,0,0,1,222.44,3.8Z"/><path class="cls-3" d="M222.6,4.26l-3,6.09a6.77,6.77,0,0,1-8.32,2.36L214.58,6S219.54,1.25,222.6,4.26Z"/><path class="cls-4" d="M219.46,10.58l-.72,1.6s-3,6.09-8.62,3l1.19-2.44S216.44,14.33,219.46,10.58Z"/><path class="cls-5" d="M220.46,7.58l-.72,1.6s-3,6.09-8.62,3l1.19-2.44S217.44,11.33,220.46,7.58Z"/><path class="cls-1" d="M232.54,1.05l-5.95,12.19s-.59,1.22-3.15,2.61a5,5,0,0,1-5.16-.25l-.61-.3,5.65-11.58A10.35,10.35,0,0,1,226.93,1C228.74.33,228.74.33,232.54,1.05Z"/><path class="cls-2" d="M230.44,3.8l1.19-2.43a7,7,0,0,0-8.16,2.81l-.73,2.28A5.8,5.8,0,0,1,230.44,3.8Z"/><path class="cls-3" d="M230.6,4.26l-3,6.09a6.77,6.77,0,0,1-8.32,2.36L222.58,6S227.54,1.25,230.6,4.26Z"/><path class="cls-4" d="M227.46,10.58l-.72,1.6s-3,6.09-8.62,3l1.19-2.44S224.44,14.33,227.46,10.58Z"/><path class="cls-5" d="M228.46,7.58l-.72,1.6s-3,6.09-8.62,3l1.19-2.44S225.44,11.33,228.46,7.58Z"/><path class="cls-1" d="M240.54,1.05l-5.95,12.19s-.59,1.22-3.15,2.61a5,5,0,0,1-5.16-.25l-.61-.3,5.65-11.58A10.35,10.35,0,0,1,234.93,1C236.74.33,236.74.33,240.54,1.05Z"/><path class="cls-2" d="M238.44,3.8l1.19-2.43a7,7,0,0,0-8.16,2.81l-.73,2.28A5.8,5.8,0,0,1,238.44,3.8Z"/><path class="cls-3" d="M238.6,4.26l-3,6.09a6.77,6.77,0,0,1-8.32,2.36L230.58,6S235.54,1.25,238.6,4.26Z"/><path class="cls-4" d="M235.46,10.58l-.72,1.6s-3,6.09-8.62,3l1.19-2.44S232.44,14.33,235.46,10.58Z"/><path class="cls-5" d="M236.46,7.58l-.72,1.6s-3,6.09-8.62,3l1.19-2.44S233.44,11.33,236.46,7.58Z"/><path class="cls-1" d="M248.54,1.05l-5.95,12.19s-.59,1.22-3.15,2.61a5,5,0,0,1-5.16-.25l-.61-.3,5.65-11.58A10.35,10.35,0,0,1,242.93,1C244.74.33,244.74.33,248.54,1.05Z"/><path class="cls-2" d="M246.44,3.8l1.19-2.43a7,7,0,0,0-8.16,2.81l-.73,2.28A5.8,5.8,0,0,1,246.44,3.8Z"/><path class="cls-3" d="M246.6,4.26l-3,6.09a6.77,6.77,0,0,1-8.32,2.36L238.58,6S243.54,1.25,246.6,4.26Z"/><path class="cls-4" d="M243.46,10.58l-.72,1.6s-3,6.09-8.62,3l1.19-2.44S240.44,14.33,243.46,10.58Z"/><path class="cls-5" d="M244.46,7.58l-.72,1.6s-3,6.09-8.62,3l1.19-2.44S241.44,11.33,244.46,7.58Z"/><path class="cls-1" d="M257.54,1.05l-6,12.19s-.59,1.22-3.15,2.61a5,5,0,0,1-5.16-.25l-.61-.3,5.65-11.58A10.35,10.35,0,0,1,251.93,1C253.74.33,253.74.33,257.54,1.05Z"/><path class="cls-2" d="M255.44,3.8l1.19-2.43a7,7,0,0,0-8.16,2.81l-.73,2.28A5.8,5.8,0,0,1,255.44,3.8Z"/><path class="cls-3" d="M255.6,4.26l-3,6.09a6.77,6.77,0,0,1-8.32,2.36L247.58,6S252.54,1.25,255.6,4.26Z"/><path class="cls-4" d="M252.46,10.58l-.72,1.6s-3,6.09-8.62,3l1.19-2.44S249.44,14.33,252.46,10.58Z"/><path class="cls-5" d="M253.46,7.58l-.72,1.6s-3,6.09-8.62,3l1.19-2.44S250.44,11.33,253.46,7.58Z"/><path class="cls-1" d="M265.54,1.05l-6,12.19s-.59,1.22-3.15,2.61a5,5,0,0,1-5.16-.25l-.61-.3,5.65-11.58A10.35,10.35,0,0,1,259.93,1C261.74.33,261.74.33,265.54,1.05Z"/><path class="cls-2" d="M263.44,3.8l1.19-2.43a7,7,0,0,0-8.16,2.81l-.73,2.28A5.8,5.8,0,0,1,263.44,3.8Z"/><path class="cls-3" d="M263.6,4.26l-3,6.09a6.77,6.77,0,0,1-8.32,2.36L255.58,6S260.54,1.25,263.6,4.26Z"/><path class="cls-4" d="M260.46,10.58l-.72,1.6s-3,6.09-8.62,3l1.19-2.44S257.44,14.33,260.46,10.58Z"/><path class="cls-5" d="M261.46,7.58l-.72,1.6s-3,6.09-8.62,3l1.19-2.44S258.44,11.33,261.46,7.58Z"/><path class="cls-1" d="M274.54,1.05l-6,12.19s-.59,1.22-3.15,2.61a5,5,0,0,1-5.16-.25l-.61-.3,5.65-11.58A10.35,10.35,0,0,1,268.93,1C270.74.33,270.74.33,274.54,1.05Z"/><path class="cls-2" d="M272.44,3.8l1.19-2.43a7,7,0,0,0-8.16,2.81l-.73,2.28A5.8,5.8,0,0,1,272.44,3.8Z"/><path class="cls-3" d="M272.6,4.26l-3,6.09a6.77,6.77,0,0,1-8.32,2.36L264.58,6S269.54,1.25,272.6,4.26Z"/><path class="cls-4" d="M269.46,10.58l-.72,1.6s-3,6.09-8.62,3l1.19-2.44S266.44,14.33,269.46,10.58Z"/><path class="cls-5" d="M270.46,7.58l-.72,1.6s-3,6.09-8.62,3l1.19-2.44S267.44,11.33,270.46,7.58Z"/><path class="cls-1" d="M282.54,1.05l-6,12.19s-.59,1.22-3.15,2.61a5,5,0,0,1-5.16-.25l-.61-.3,5.65-11.58A10.35,10.35,0,0,1,276.93,1C278.74.33,278.74.33,282.54,1.05Z"/><path class="cls-2" d="M280.44,3.8l1.19-2.43a7,7,0,0,0-8.16,2.81l-.73,2.28A5.8,5.8,0,0,1,280.44,3.8Z"/><path class="cls-3" d="M280.6,4.26l-3,6.09a6.77,6.77,0,0,1-8.32,2.36L272.58,6S277.54,1.25,280.6,4.26Z"/><path class="cls-4" d="M277.46,10.58l-.72,1.6s-3,6.09-8.62,3l1.19-2.44S274.44,14.33,277.46,10.58Z"/><path class="cls-5" d="M278.46,7.58l-.72,1.6s-3,6.09-8.62,3l1.19-2.44S275.44,11.33,278.46,7.58Z"/><path class="cls-1" d="M291.54,1.05l-6,12.19s-.59,1.22-3.15,2.61a5,5,0,0,1-5.16-.25l-.61-.3,5.65-11.58A10.35,10.35,0,0,1,285.93,1C287.74.33,287.74.33,291.54,1.05Z"/><path class="cls-2" d="M289.44,3.8l1.19-2.43a7,7,0,0,0-8.16,2.81l-.73,2.28A5.8,5.8,0,0,1,289.44,3.8Z"/><path class="cls-3" d="M289.6,4.26l-3,6.09a6.77,6.77,0,0,1-8.32,2.36L281.58,6S286.54,1.25,289.6,4.26Z"/><path class="cls-4" d="M286.46,10.58l-.72,1.6s-3,6.09-8.62,3l1.19-2.44S283.44,14.33,286.46,10.58Z"/><path class="cls-5" d="M287.46,7.58l-.72,1.6s-3,6.09-8.62,3l1.19-2.44S284.44,11.33,287.46,7.58Z"/><path class="cls-1" d="M299.54,1.05l-6,12.19s-.59,1.22-3.15,2.61a5,5,0,0,1-5.16-.25l-.61-.3,5.65-11.58A10.35,10.35,0,0,1,293.93,1C295.74.33,295.74.33,299.54,1.05Z"/><path class="cls-2" d="M297.44,3.8l1.19-2.43a7,7,0,0,0-8.16,2.81l-.73,2.28A5.8,5.8,0,0,1,297.44,3.8Z"/><path class="cls-3" d="M297.6,4.26l-3,6.09a6.77,6.77,0,0,1-8.32,2.36L289.58,6S294.54,1.25,297.6,4.26Z"/><path class="cls-4" d="M294.46,10.58l-.72,1.6s-3,6.09-8.62,3l1.19-2.44S291.44,14.33,294.46,10.58Z"/><path class="cls-5" d="M295.46,7.58l-.72,1.6s-3,6.09-8.62,3l1.19-2.44S292.44,11.33,295.46,7.58Z"/><path class="cls-1" d="M307.54,1.05l-6,12.19s-.59,1.22-3.15,2.61a5,5,0,0,1-5.16-.25l-.61-.3,5.65-11.58A10.35,10.35,0,0,1,301.93,1C303.74.33,303.74.33,307.54,1.05Z"/><path class="cls-2" d="M305.44,3.8l1.19-2.43a7,7,0,0,0-8.16,2.81l-.73,2.28A5.8,5.8,0,0,1,305.44,3.8Z"/><path class="cls-3" d="M305.6,4.26l-3,6.09a6.77,6.77,0,0,1-8.32,2.36L297.58,6S302.54,1.25,305.6,4.26Z"/><path class="cls-4" d="M302.46,10.58l-.72,1.6s-3,6.09-8.62,3l1.19-2.44S299.44,14.33,302.46,10.58Z"/><path class="cls-5" d="M303.46,7.58l-.72,1.6s-3,6.09-8.62,3l1.19-2.44S300.44,11.33,303.46,7.58Z"/><path class="cls-1" d="M315.54,1.05l-6,12.19s-.59,1.22-3.15,2.61a5,5,0,0,1-5.16-.25l-.61-.3,5.65-11.58A10.35,10.35,0,0,1,309.93,1C311.74.33,311.74.33,315.54,1.05Z"/><path class="cls-2" d="M313.44,3.8l1.19-2.43a7,7,0,0,0-8.16,2.81l-.73,2.28A5.8,5.8,0,0,1,313.44,3.8Z"/><path class="cls-3" d="M313.6,4.26l-3,6.09a6.77,6.77,0,0,1-8.32,2.36L305.58,6S310.54,1.25,313.6,4.26Z"/><path class="cls-4" d="M310.46,10.58l-.72,1.6s-3,6.09-8.62,3l1.19-2.44S307.44,14.33,310.46,10.58Z"/><path class="cls-5" d="M311.46,7.58l-.72,1.6s-3,6.09-8.62,3l1.19-2.44S308.44,11.33,311.46,7.58Z"/><path class="cls-1" d="M324.54,1.05l-6,12.19s-.59,1.22-3.15,2.61a5,5,0,0,1-5.16-.25l-.61-.3,5.65-11.58A10.35,10.35,0,0,1,318.93,1C320.74.33,320.74.33,324.54,1.05Z"/><path class="cls-2" d="M322.44,3.8l1.19-2.43a7,7,0,0,0-8.16,2.81l-.73,2.28A5.8,5.8,0,0,1,322.44,3.8Z"/><path class="cls-3" d="M322.6,4.26l-3,6.09a6.77,6.77,0,0,1-8.32,2.36L314.58,6S319.54,1.25,322.6,4.26Z"/><path class="cls-4" d="M319.46,10.58l-.72,1.6s-3,6.09-8.62,3l1.19-2.44S316.44,14.33,319.46,10.58Z"/><path class="cls-5" d="M320.46,7.58l-.72,1.6s-3,6.09-8.62,3l1.19-2.44S317.44,11.33,320.46,7.58Z"/><path class="cls-1" d="M332.54,1.05l-6,12.19s-.59,1.22-3.15,2.61a5,5,0,0,1-5.16-.25l-.61-.3,5.65-11.58A10.35,10.35,0,0,1,326.93,1C328.74.33,328.74.33,332.54,1.05Z"/><path class="cls-2" d="M330.44,3.8l1.19-2.43a7,7,0,0,0-8.16,2.81l-.73,2.28A5.8,5.8,0,0,1,330.44,3.8Z"/><path class="cls-3" d="M330.6,4.26l-3,6.09a6.77,6.77,0,0,1-8.32,2.36L322.58,6S327.54,1.25,330.6,4.26Z"/><path class="cls-4" d="M327.46,10.58l-.72,1.6s-3,6.09-8.62,3l1.19-2.44S324.44,14.33,327.46,10.58Z"/><path class="cls-5" d="M328.46,7.58l-.72,1.6s-3,6.09-8.62,3l1.19-2.44S325.44,11.33,328.46,7.58Z"/><path class="cls-1" d="M340.54,1.05l-6,12.19s-.59,1.22-3.15,2.61a5,5,0,0,1-5.16-.25l-.61-.3,5.65-11.58A10.35,10.35,0,0,1,334.93,1C336.74.33,336.74.33,340.54,1.05Z"/><path class="cls-2" d="M338.44,3.8l1.19-2.43a7,7,0,0,0-8.16,2.81l-.73,2.28A5.8,5.8,0,0,1,338.44,3.8Z"/><path class="cls-3" d="M338.6,4.26l-3,6.09a6.77,6.77,0,0,1-8.32,2.36L330.58,6S335.54,1.25,338.6,4.26Z"/><path class="cls-4" d="M335.46,10.58l-.72,1.6s-3,6.09-8.62,3l1.19-2.44S332.44,14.33,335.46,10.58Z"/><path class="cls-5" d="M336.46,7.58l-.72,1.6s-3,6.09-8.62,3l1.19-2.44S333.44,11.33,336.46,7.58Z"/><path class="cls-1" d="M348.54,1.05l-6,12.19s-.59,1.22-3.15,2.61a5,5,0,0,1-5.16-.25l-.61-.3,5.65-11.58A10.35,10.35,0,0,1,342.93,1C344.74.33,344.74.33,348.54,1.05Z"/><path class="cls-2" d="M346.44,3.8l1.19-2.43a7,7,0,0,0-8.16,2.81l-.73,2.28A5.8,5.8,0,0,1,346.44,3.8Z"/><path class="cls-3" d="M346.6,4.26l-3,6.09a6.77,6.77,0,0,1-8.32,2.36L338.58,6S343.54,1.25,346.6,4.26Z"/><path class="cls-4" d="M343.46,10.58l-.72,1.6s-3,6.09-8.62,3l1.19-2.44S340.44,14.33,343.46,10.58Z"/><path class="cls-5" d="M344.46,7.58l-.72,1.6s-3,6.09-8.62,3l1.19-2.44S341.44,11.33,344.46,7.58Z"/><path class="cls-1" d="M357.54,1.05l-6,12.19s-.59,1.22-3.15,2.61a5,5,0,0,1-5.16-.25l-.61-.3,5.65-11.58A10.35,10.35,0,0,1,351.93,1C353.74.33,353.74.33,357.54,1.05Z"/><path class="cls-2" d="M355.44,3.8l1.19-2.43a7,7,0,0,0-8.16,2.81l-.73,2.28A5.8,5.8,0,0,1,355.44,3.8Z"/><path class="cls-3" d="M355.6,4.26l-3,6.09a6.77,6.77,0,0,1-8.32,2.36L347.58,6S352.54,1.25,355.6,4.26Z"/><path class="cls-4" d="M352.46,10.58l-.72,1.6s-3,6.09-8.62,3l1.19-2.44S349.44,14.33,352.46,10.58Z"/><path class="cls-5" d="M353.46,7.58l-.72,1.6s-3,6.09-8.62,3l1.19-2.44S350.44,11.33,353.46,7.58Z"/><path class="cls-1" d="M365.54,1.05l-6,12.19s-.59,1.22-3.15,2.61a5,5,0,0,1-5.16-.25l-.61-.3,5.65-11.58A10.35,10.35,0,0,1,359.93,1C361.74.33,361.74.33,365.54,1.05Z"/><path class="cls-2" d="M363.44,3.8l1.19-2.43a7,7,0,0,0-8.16,2.81l-.73,2.28A5.8,5.8,0,0,1,363.44,3.8Z"/><path class="cls-3" d="M363.6,4.26l-3,6.09a6.77,6.77,0,0,1-8.32,2.36L355.58,6S360.54,1.25,363.6,4.26Z"/><path class="cls-4" d="M360.46,10.58l-.72,1.6s-3,6.09-8.62,3l1.19-2.44S357.44,14.33,360.46,10.58Z"/><path class="cls-5" d="M361.46,7.58l-.72,1.6s-3,6.09-8.62,3l1.19-2.44S358.44,11.33,361.46,7.58Z"/><path class="cls-1" d="M373.54,1.05l-6,12.19s-.59,1.22-3.15,2.61a5,5,0,0,1-5.16-.25l-.61-.3,5.65-11.58A10.35,10.35,0,0,1,367.93,1C369.74.33,369.74.33,373.54,1.05Z"/><path class="cls-2" d="M371.44,3.8l1.19-2.43a7,7,0,0,0-8.16,2.81l-.73,2.28A5.8,5.8,0,0,1,371.44,3.8Z"/><path class="cls-3" d="M371.6,4.26l-3,6.09a6.77,6.77,0,0,1-8.32,2.36L363.58,6S368.54,1.25,371.6,4.26Z"/><path class="cls-5" d="M369.46,7.58l-.72,1.6s-3,6.09-8.62,3l1.19-2.44S366.44,11.33,369.46,7.58Z"/><path class="cls-1" d="M381.54,1.05l-6,12.19s-.59,1.22-3.15,2.61a5,5,0,0,1-5.16-.25l-.61-.3,5.65-11.58A10.35,10.35,0,0,1,375.93,1C377.74.33,377.74.33,381.54,1.05Z"/><path class="cls-2" d="M379.44,3.8l1.19-2.43a7,7,0,0,0-8.16,2.81l-.73,2.28A5.8,5.8,0,0,1,379.44,3.8Z"/><path class="cls-3" d="M379.6,4.26l-3,6.09a6.77,6.77,0,0,1-8.32,2.36L371.58,6S376.54,1.25,379.6,4.26Z"/><path class="cls-4" d="M376.46,10.58l-.72,1.6s-3,6.09-8.62,3l1.19-2.44S373.44,14.33,376.46,10.58Z"/><path class="cls-4" d="M368.46,10.58l-.72,1.6s-3,6.09-8.62,3l1.19-2.44S365.44,14.33,368.46,10.58Z"/><path class="cls-5" d="M377.46,7.58l-.72,1.6s-3,6.09-8.62,3l1.19-2.44S374.44,11.33,377.46,7.58Z"/><path class="cls-1" d="M390.54,1.05l-6,12.19s-.59,1.22-3.15,2.61a5,5,0,0,1-5.16-.25l-.61-.3,5.65-11.58A10.35,10.35,0,0,1,384.93,1C386.74.33,386.74.33,390.54,1.05Z"/><path class="cls-2" d="M388.44,3.8l1.19-2.43a7,7,0,0,0-8.16,2.81l-.73,2.28A5.8,5.8,0,0,1,388.44,3.8Z"/><path class="cls-3" d="M388.6,4.26l-3,6.09a6.77,6.77,0,0,1-8.32,2.36L380.58,6S385.54,1.25,388.6,4.26Z"/><path class="cls-4" d="M385.46,10.58l-.72,1.6s-3,6.09-8.62,3l1.19-2.44S382.44,14.33,385.46,10.58Z"/><path class="cls-5" d="M386.46,7.58l-.72,1.6s-3,6.09-8.62,3l1.19-2.44S383.44,11.33,386.46,7.58Z"/><path class="cls-1" d="M398.54,1.05l-6,12.19s-.59,1.22-3.15,2.61a5,5,0,0,1-5.16-.25l-.61-.3,5.65-11.58A10.35,10.35,0,0,1,392.93,1C394.74.33,394.74.33,398.54,1.05Z"/><path class="cls-2" d="M396.44,3.8l1.19-2.43a7,7,0,0,0-8.16,2.81l-.73,2.28A5.8,5.8,0,0,1,396.44,3.8Z"/><path class="cls-3" d="M396.6,4.26l-3,6.09a6.77,6.77,0,0,1-8.32,2.36L388.58,6S393.54,1.25,396.6,4.26Z"/><path class="cls-4" d="M393.46,10.58l-.72,1.6s-3,6.09-8.62,3l1.19-2.44S390.44,14.33,393.46,10.58Z"/><path class="cls-5" d="M394.46,7.58l-.72,1.6s-3,6.09-8.62,3l1.19-2.44S391.44,11.33,394.46,7.58Z"/><path class="cls-1" d="M407.54,1.05l-6,12.19s-.59,1.22-3.15,2.61a5,5,0,0,1-5.16-.25l-.61-.3,5.65-11.58A10.35,10.35,0,0,1,401.93,1C403.74.33,403.74.33,407.54,1.05Z"/><path class="cls-2" d="M405.44,3.8l1.19-2.43a7,7,0,0,0-8.16,2.81l-.73,2.28A5.8,5.8,0,0,1,405.44,3.8Z"/><path class="cls-3" d="M405.6,4.26l-3,6.09a6.77,6.77,0,0,1-8.32,2.36L397.58,6S402.54,1.25,405.6,4.26Z"/><path class="cls-4" d="M402.46,10.58l-.72,1.6s-3,6.09-8.62,3l1.19-2.44S399.44,14.33,402.46,10.58Z"/><path class="cls-5" d="M403.46,7.58l-.72,1.6s-3,6.09-8.62,3l1.19-2.44S400.44,11.33,403.46,7.58Z"/><path class="cls-1" d="M415.54,1.05l-6,12.19s-.59,1.22-3.15,2.61a5,5,0,0,1-5.16-.25l-.61-.3,5.65-11.58A10.35,10.35,0,0,1,409.93,1C411.74.33,411.74.33,415.54,1.05Z"/><path class="cls-2" d="M413.44,3.8l1.19-2.43a7,7,0,0,0-8.16,2.81l-.73,2.28A5.8,5.8,0,0,1,413.44,3.8Z"/><path class="cls-3" d="M413.6,4.26l-3,6.09a6.77,6.77,0,0,1-8.32,2.36L405.58,6S410.54,1.25,413.6,4.26Z"/><path class="cls-4" d="M410.46,10.58l-.72,1.6s-3,6.09-8.62,3l1.19-2.44S407.44,14.33,410.46,10.58Z"/><path class="cls-5" d="M411.46,7.58l-.72,1.6s-3,6.09-8.62,3l1.19-2.44S408.44,11.33,411.46,7.58Z"/><path class="cls-1" d="M424.54,1.05l-6,12.19s-.59,1.22-3.15,2.61a5,5,0,0,1-5.16-.25l-.61-.3,5.65-11.58A10.35,10.35,0,0,1,418.93,1C420.74.33,420.74.33,424.54,1.05Z"/><path class="cls-2" d="M422.44,3.8l1.19-2.43a7,7,0,0,0-8.16,2.81l-.73,2.28A5.8,5.8,0,0,1,422.44,3.8Z"/><path class="cls-3" d="M422.6,4.26l-3,6.09a6.77,6.77,0,0,1-8.32,2.36L414.58,6S419.54,1.25,422.6,4.26Z"/><path class="cls-4" d="M419.46,10.58l-.72,1.6s-3,6.09-8.62,3l1.19-2.44S416.44,14.33,419.46,10.58Z"/><path class="cls-5" d="M420.46,7.58l-.72,1.6s-3,6.09-8.62,3l1.19-2.44S417.44,11.33,420.46,7.58Z"/><path class="cls-1" d="M432.54,1.05l-6,12.19s-.59,1.22-3.15,2.61a5,5,0,0,1-5.16-.25l-.61-.3,5.65-11.58A10.35,10.35,0,0,1,426.93,1C428.74.33,428.74.33,432.54,1.05Z"/><path class="cls-2" d="M430.44,3.8l1.19-2.43a7,7,0,0,0-8.16,2.81l-.73,2.28A5.8,5.8,0,0,1,430.44,3.8Z"/><path class="cls-3" d="M430.6,4.26l-3,6.09a6.77,6.77,0,0,1-8.32,2.36L422.58,6S427.54,1.25,430.6,4.26Z"/><path class="cls-4" d="M427.46,10.58l-.72,1.6s-3,6.09-8.62,3l1.19-2.44S424.44,14.33,427.46,10.58Z"/><path class="cls-5" d="M428.46,7.58l-.72,1.6s-3,6.09-8.62,3l1.19-2.44S425.44,11.33,428.46,7.58Z"/><path class="cls-1" d="M440.54,1.05l-6,12.19s-.59,1.22-3.15,2.61a5,5,0,0,1-5.16-.25l-.61-.3,5.65-11.58A10.35,10.35,0,0,1,434.93,1C436.74.33,436.74.33,440.54,1.05Z"/><path class="cls-2" d="M438.44,3.8l1.19-2.43a7,7,0,0,0-8.16,2.81l-.73,2.28A5.8,5.8,0,0,1,438.44,3.8Z"/><path class="cls-3" d="M438.6,4.26l-3,6.09a6.77,6.77,0,0,1-8.32,2.36L430.58,6S435.54,1.25,438.6,4.26Z"/><path class="cls-4" d="M435.46,10.58l-.72,1.6s-3,6.09-8.62,3l1.19-2.44S432.44,14.33,435.46,10.58Z"/><path class="cls-5" d="M436.46,7.58l-.72,1.6s-3,6.09-8.62,3l1.19-2.44S433.44,11.33,436.46,7.58Z"/><path class="cls-1" d="M448.54,1.05l-6,12.19s-.59,1.22-3.15,2.61a5,5,0,0,1-5.16-.25l-.61-.3,5.65-11.58A10.35,10.35,0,0,1,442.93,1C444.74.33,444.74.33,448.54,1.05Z"/><path class="cls-2" d="M446.44,3.8l1.19-2.43a7,7,0,0,0-8.16,2.81l-.73,2.28A5.8,5.8,0,0,1,446.44,3.8Z"/><path class="cls-3" d="M446.6,4.26l-3,6.09a6.77,6.77,0,0,1-8.32,2.36L438.58,6S443.54,1.25,446.6,4.26Z"/><path class="cls-4" d="M443.46,10.58l-.72,1.6s-3,6.09-8.62,3l1.19-2.44S440.44,14.33,443.46,10.58Z"/><path class="cls-5" d="M444.46,7.58l-.72,1.6s-3,6.09-8.62,3l1.19-2.44S441.44,11.33,444.46,7.58Z"/><path class="cls-1" d="M457.54,1.05l-6,12.19s-.59,1.22-3.15,2.61a5,5,0,0,1-5.16-.25l-.61-.3,5.65-11.58A10.35,10.35,0,0,1,451.93,1C453.74.33,453.74.33,457.54,1.05Z"/><path class="cls-2" d="M455.44,3.8l1.19-2.43a7,7,0,0,0-8.16,2.81l-.73,2.28A5.8,5.8,0,0,1,455.44,3.8Z"/><path class="cls-3" d="M455.6,4.26l-3,6.09a6.77,6.77,0,0,1-8.32,2.36L447.58,6S452.54,1.25,455.6,4.26Z"/><path class="cls-4" d="M452.46,10.58l-.72,1.6s-3,6.09-8.62,3l1.19-2.44S449.44,14.33,452.46,10.58Z"/><path class="cls-5" d="M453.46,7.58l-.72,1.6s-3,6.09-8.62,3l1.19-2.44S450.44,11.33,453.46,7.58Z"/><path class="cls-1" d="M465.54,1.05l-6,12.19s-.59,1.22-3.15,2.61a5,5,0,0,1-5.16-.25l-.61-.3,5.65-11.58A10.35,10.35,0,0,1,459.93,1C461.74.33,461.74.33,465.54,1.05Z"/><path class="cls-2" d="M463.44,3.8l1.19-2.43a7,7,0,0,0-8.16,2.81l-.73,2.28A5.8,5.8,0,0,1,463.44,3.8Z"/><path class="cls-3" d="M463.6,4.26l-3,6.09a6.77,6.77,0,0,1-8.32,2.36L455.58,6S460.54,1.25,463.6,4.26Z"/><path class="cls-4" d="M460.46,10.58l-.72,1.6s-3,6.09-8.62,3l1.19-2.44S457.44,14.33,460.46,10.58Z"/><path class="cls-5" d="M461.46,7.58l-.72,1.6s-3,6.09-8.62,3l1.19-2.44S458.44,11.33,461.46,7.58Z"/></g></g></svg>