<svg xmlns="http://www.w3.org/2000/svg" xmlns:xlink="http://www.w3.org/1999/xlink" viewBox="0 0 1428.14 1010.81"><defs><style>.cls-1,.cls-4{fill:#0f0909;}.cls-2{fill:#e50e2e;}.cls-3{fill:#f20606;stroke:#08090a;}.cls-3,.cls-4{stroke-miterlimit:10;}.cls-4{stroke:#151700;}</style></defs><title>MAP</title><g id="Lag_1" data-name="Lag 1"><path class="cls-1" d="M1569.05,142" transform="translate(-62.81 -46.82)"/><path class="cls-1" d="M1283.82,142" transform="translate(-62.81 -46.82)"/><path class="cls-2" d="M545.1,842.82" transform="translate(-62.81 -46.82)"/><path class="cls-3" d="M551.1,865.11" transform="translate(-62.81 -46.82)"/><path class="cls-1" d="M877.89,243.84" transform="translate(-62.81 -46.82)"/><path class="cls-1" d="M877.89,587.24" transform="translate(-62.81 -46.82)"/><path class="cls-1" d="M1311.6,587.24" transform="translate(-62.81 -46.82)"/><path class="cls-1" d="M1768.43,345.43" transform="translate(-62.81 -46.82)"/><rect y="110.92" width="976.58" height="899.88"/><image width="684" height="634" transform="translate(11.63 122.18) scale(1.4 1.38)" xlink:href="../../Sk%C3%A6rmbillede%202019-12-05%20kl.%2022.54.37.png"/></g><g id="Lag_2" data-name="Lag 2"><polygon points="872.94 420.66 897.16 451.42 684.42 603.91 521.2 731.84 666.07 587.23 848.73 389.89 872.94 420.66"/><path class="cls-2" d="M578,756.37c0-2.6,2.68-4.71,6-4.71s6,2.11,6,4.71-2.69,4.7-6,4.7-6-2.1-6-4.7" transform="translate(-62.81 -46.82)"/><line class="cls-3" x1="521.2" y1="714.25" x2="521.2" y2="731.84"/><rect class="cls-4" x="849.91" y="0.5" width="577.73" height="458.86"/><image width="1300" height="1130" transform="translate(861.26 11.17) scale(0.43 0.39)" xlink:href="../../Sk%C3%A6rmbillede%202019-12-05%20kl.%2023.24.05.png"/></g></svg>