<svg id="Lag_1" data-name="Lag 1" xmlns="http://www.w3.org/2000/svg" viewBox="0 0 1753 903"><defs><style>.cls-1{fill:#e9f6ff;}.cls-2{fill:#fff;}.cls-3{fill:none;}</style></defs><title>tekstbox</title><rect class="cls-1" y="113" width="1753" height="677"/><circle class="cls-2" cx="302.5" cy="112.5" r="112.5"/><circle class="cls-1" cx="1442.5" cy="790.5" r="112.5"/><line class="cls-3" x1="656" y1="334" x2="656" y2="528"/><path class="cls-3" d="M839,261c8.81,9.76,57.28,65.33,51,147-5,64.75-41.34,106.59-53,119" transform="translate(-100 -76)"/><path class="cls-1" d="M457.36,265.08c4-3.55,36.87-33.75,33.61-81.17-2.85-41.55-31.36-65.75-36.33-69.82" transform="translate(-100 -76)"/><path class="cls-2" d="M1598.72,942.31c4-3.56,36.81-33.82,33.47-81.22-2.93-41.55-31.48-65.7-36.45-69.77" transform="translate(-100 -76)"/></svg>