<svg xmlns="http://www.w3.org/2000/svg" xmlns:xlink="http://www.w3.org/1999/xlink" viewBox="0 0 1381.23 945.13"><defs><style>.cls-1,.cls-5{fill:#0f0909;}.cls-2{fill:#e50e2e;}.cls-3,.cls-4{fill:#f20606;stroke:#08090a;}.cls-3,.cls-4,.cls-5{stroke-miterlimit:10;}.cls-4{stroke-width:3px;}.cls-5{stroke:#151700;}.cls-6{font-size:60px;font-family:MyriadPro-Regular, Myriad Pro;}.cls-7{letter-spacing:-0.01em;}.cls-8{letter-spacing:0em;}.cls-9{letter-spacing:0em;}</style></defs><title>tekstboxen</title><g id="Lag_1" data-name="Lag 1"><path class="cls-1" d="M1569.05,142" transform="translate(-62.81 -112.5)"/><path class="cls-1" d="M1283.82,142" transform="translate(-62.81 -112.5)"/><path class="cls-2" d="M545.1,842.82" transform="translate(-62.81 -112.5)"/><path class="cls-3" d="M551.1,865.11" transform="translate(-62.81 -112.5)"/><path class="cls-1" d="M877.89,243.84" transform="translate(-62.81 -112.5)"/><path class="cls-1" d="M877.89,587.24" transform="translate(-62.81 -112.5)"/><path class="cls-1" d="M1311.6,587.24" transform="translate(-62.81 -112.5)"/><path class="cls-1" d="M1768.43,345.43" transform="translate(-62.81 -112.5)"/><rect y="45.25" width="976.58" height="899.88"/><image width="684" height="634" transform="translate(11.63 56.51) scale(1.4 1.38)" xlink:href="../../Sk%C3%A6rmbillede%202019-12-05%20kl.%2022.54.37.png"/></g><g id="Lag_2" data-name="Lag 2"><polygon points="828.67 428.87 852.88 459.64 640.14 612.13 476.92 740.05 621.79 595.45 804.45 398.11 828.67 428.87"/><path class="cls-2" d="M521.89,806.21c0-9,8-16.28,17.84-16.28s17.84,7.29,17.84,16.28-8,16.29-17.84,16.29-17.84-7.3-17.84-16.29" transform="translate(-62.81 -112.5)"/><line class="cls-4" x1="476.92" y1="710.07" x2="476.92" y2="740.06"/><rect class="cls-5" x="803" y="0.5" width="577.73" height="458.86"/><image width="1300" height="1130" transform="translate(814.35 11.17) scale(0.43 0.39)" xlink:href="../../Sk%C3%A6rmbillede%202019-12-05%20kl.%2023.24.05.png"/><text class="cls-6" transform="translate(827.83 72.06)"><tspan class="cls-7">A</tspan><tspan x="36.36" y="0">ssens</tspan></text><text class="cls-6" transform="translate(20.28 136.59)"><tspan class="cls-8">D</tspan><tspan x="40.2" y="0">enma</tspan><tspan class="cls-9" x="182.52" y="0">r</tspan><tspan x="202.38" y="0">k</tspan></text></g></svg>